<mxfile host="app.diagrams.net" agent="Mozilla/5.0 (Windows NT 10.0; Win64; x64) AppleWebKit/537.36 (KHTML, like Gecko) Chrome/135.0.0.0 Safari/537.36" version="26.3.0">
  <diagram name="Page-1" id="0783ab3e-0a74-02c8-0abd-f7b4e66b4bec">
    <mxGraphModel dx="1603" dy="1265" grid="0" gridSize="10" guides="0" tooltips="1" connect="1" arrows="1" fold="1" page="0" pageScale="1" pageWidth="850" pageHeight="1100" background="none" math="0" shadow="0">
      <root>
        <mxCell id="0" />
        <mxCell id="1" parent="0" />
        <mxCell id="V_zlflSBCVvjLNrua1hl-13" style="edgeStyle=orthogonalEdgeStyle;rounded=0;orthogonalLoop=1;jettySize=auto;html=1;entryX=1;entryY=0.5;entryDx=0;entryDy=0;strokeWidth=3;fontSize=24;" edge="1" parent="1" source="FsJjB8RT-nmozuc2Gc8c-8" target="V_zlflSBCVvjLNrua1hl-6">
          <mxGeometry relative="1" as="geometry" />
        </mxCell>
        <mxCell id="FsJjB8RT-nmozuc2Gc8c-8" value="&lt;font&gt;Splash Screen&lt;/font&gt;" style="rounded=1;whiteSpace=wrap;html=1;fontSize=24;fontStyle=1;editable=1;movable=1;resizable=1;rotatable=1;deletable=1;locked=0;connectable=1;backgroundOutline=0;strokeWidth=3;" parent="1" vertex="1">
          <mxGeometry x="1693" y="217" width="216" height="50" as="geometry" />
        </mxCell>
        <mxCell id="7o8EhB13gYxt9ykmUNno-114" value="&lt;font&gt;Sign up&amp;nbsp;&lt;/font&gt;" style="rounded=1;whiteSpace=wrap;html=1;fontSize=24;fontStyle=1;editable=1;movable=1;resizable=1;rotatable=1;deletable=1;locked=0;connectable=1;backgroundOutline=0;strokeWidth=3;" parent="1" vertex="1">
          <mxGeometry x="1576" y="373" width="115" height="50" as="geometry" />
        </mxCell>
        <mxCell id="7o8EhB13gYxt9ykmUNno-117" value="&lt;span&gt;Forget Password&lt;/span&gt;" style="rounded=1;whiteSpace=wrap;html=1;fontSize=24;fontStyle=1;editable=1;movable=1;resizable=1;rotatable=1;deletable=1;locked=0;connectable=1;backgroundOutline=0;strokeWidth=3;" parent="1" vertex="1">
          <mxGeometry x="1995" y="372" width="221" height="52" as="geometry" />
        </mxCell>
        <mxCell id="FIExH7QmCzMLWhxPW_MM-20" style="edgeStyle=orthogonalEdgeStyle;rounded=0;orthogonalLoop=1;jettySize=auto;html=1;entryX=0.132;entryY=-0.017;entryDx=0;entryDy=0;fontSize=24;fontStyle=1;editable=1;movable=1;resizable=1;rotatable=1;deletable=1;locked=0;connectable=1;backgroundOutline=0;strokeWidth=3;entryPerimeter=0;" parent="1" edge="1">
          <mxGeometry relative="1" as="geometry">
            <mxPoint x="639" y="1305" as="sourcePoint" />
            <mxPoint x="1800.46" y="1779.623" as="targetPoint" />
            <Array as="points">
              <mxPoint x="639" y="1628" />
              <mxPoint x="1801" y="1628" />
            </Array>
          </mxGeometry>
        </mxCell>
        <mxCell id="FIExH7QmCzMLWhxPW_MM-26" style="edgeStyle=orthogonalEdgeStyle;rounded=0;orthogonalLoop=1;jettySize=auto;html=1;entryX=0;entryY=0.25;entryDx=0;entryDy=0;fontSize=24;fontStyle=1;editable=1;movable=1;resizable=1;rotatable=1;deletable=1;locked=0;connectable=1;backgroundOutline=0;strokeWidth=3;" parent="1" edge="1">
          <mxGeometry relative="1" as="geometry">
            <mxPoint x="1331.9999999999995" y="584" as="sourcePoint" />
            <mxPoint x="1775" y="1820.5" as="targetPoint" />
            <Array as="points">
              <mxPoint x="1332" y="538" />
              <mxPoint x="329" y="538" />
              <mxPoint x="329" y="1821" />
            </Array>
          </mxGeometry>
        </mxCell>
        <mxCell id="7o8EhB13gYxt9ykmUNno-119" value="&lt;font&gt;Home Dashboard&lt;/font&gt;" style="rounded=1;whiteSpace=wrap;html=1;fontSize=24;fontStyle=1;editable=1;movable=1;resizable=1;rotatable=1;deletable=1;locked=0;connectable=1;backgroundOutline=0;strokeWidth=3;" parent="1" vertex="1">
          <mxGeometry x="1332" y="523" width="160" height="64" as="geometry" />
        </mxCell>
        <mxCell id="7o8EhB13gYxt9ykmUNno-130" value="Managing Notes&amp;nbsp;" style="swimlane;whiteSpace=wrap;html=1;fontSize=24;fontStyle=1;editable=1;movable=1;resizable=1;rotatable=1;deletable=1;locked=0;connectable=1;backgroundOutline=0;strokeWidth=3;startSize=39;" parent="1" vertex="1">
          <mxGeometry x="1280" y="751" width="486" height="468" as="geometry" />
        </mxCell>
        <mxCell id="7o8EhB13gYxt9ykmUNno-131" value="View Notes" style="rounded=1;whiteSpace=wrap;html=1;fontSize=24;fontStyle=1;editable=1;movable=1;resizable=1;rotatable=1;deletable=1;locked=0;connectable=1;backgroundOutline=0;" parent="7o8EhB13gYxt9ykmUNno-130" vertex="1">
          <mxGeometry x="159" y="111" width="115" height="50" as="geometry" />
        </mxCell>
        <mxCell id="7o8EhB13gYxt9ykmUNno-132" value="Access Notes" style="rounded=1;whiteSpace=wrap;html=1;fontSize=24;fontStyle=1;editable=1;movable=1;resizable=1;rotatable=1;deletable=1;locked=0;connectable=1;backgroundOutline=0;" parent="7o8EhB13gYxt9ykmUNno-130" vertex="1">
          <mxGeometry x="331" y="287" width="115" height="50" as="geometry" />
        </mxCell>
        <mxCell id="7o8EhB13gYxt9ykmUNno-133" value="" style="ellipse;html=1;shape=startState;fillColor=#000000;strokeColor=#ff0000;fontSize=24;fontStyle=1;editable=1;movable=1;resizable=1;rotatable=1;deletable=1;locked=0;connectable=1;backgroundOutline=0;" parent="7o8EhB13gYxt9ykmUNno-130" vertex="1">
          <mxGeometry x="200" y="41" width="30" height="30" as="geometry" />
        </mxCell>
        <mxCell id="7o8EhB13gYxt9ykmUNno-134" value="" style="edgeStyle=orthogonalEdgeStyle;html=1;verticalAlign=bottom;endArrow=open;endSize=8;strokeColor=#ff0000;rounded=0;fontSize=24;fontStyle=1;editable=1;movable=1;resizable=1;rotatable=1;deletable=1;locked=0;connectable=1;backgroundOutline=0;" parent="7o8EhB13gYxt9ykmUNno-130" source="7o8EhB13gYxt9ykmUNno-133" edge="1">
          <mxGeometry relative="1" as="geometry">
            <mxPoint x="215" y="111" as="targetPoint" />
          </mxGeometry>
        </mxCell>
        <mxCell id="7o8EhB13gYxt9ykmUNno-135" value="Upload Notes" style="rounded=1;whiteSpace=wrap;html=1;fontSize=24;fontStyle=1;editable=1;movable=1;resizable=1;rotatable=1;deletable=1;locked=0;connectable=1;backgroundOutline=0;" parent="7o8EhB13gYxt9ykmUNno-130" vertex="1">
          <mxGeometry x="23" y="281" width="115" height="50" as="geometry" />
        </mxCell>
        <mxCell id="7o8EhB13gYxt9ykmUNno-157" value="" style="endArrow=classic;html=1;rounded=0;entryX=0.202;entryY=0.019;entryDx=0;entryDy=0;entryPerimeter=0;exitX=0.427;exitY=1.034;exitDx=0;exitDy=0;exitPerimeter=0;fontSize=24;fontStyle=1;editable=1;movable=1;resizable=1;rotatable=1;deletable=1;locked=0;connectable=1;backgroundOutline=0;" parent="7o8EhB13gYxt9ykmUNno-130" edge="1">
          <mxGeometry width="50" height="50" relative="1" as="geometry">
            <mxPoint x="215.10500000000002" y="162.70000000000005" as="sourcePoint" />
            <mxPoint x="214.23000000000002" y="319.95000000000005" as="targetPoint" />
          </mxGeometry>
        </mxCell>
        <mxCell id="Z_lRhfTax4ggt8AZdCFU-10" value="&lt;font&gt;Share&lt;/font&gt;" style="edgeLabel;html=1;align=center;verticalAlign=middle;resizable=1;points=[];fontSize=24;fontStyle=1;editable=1;movable=1;rotatable=1;deletable=1;locked=0;connectable=1;backgroundOutline=0;" parent="7o8EhB13gYxt9ykmUNno-157" connectable="0" vertex="1">
          <mxGeometry x="-0.4114" y="4" relative="1" as="geometry">
            <mxPoint x="-9" y="-11" as="offset" />
          </mxGeometry>
        </mxCell>
        <mxCell id="7o8EhB13gYxt9ykmUNno-158" value="" style="endArrow=classic;html=1;rounded=0;entryX=0.153;entryY=0.046;entryDx=0;entryDy=0;entryPerimeter=0;edgeStyle=orthogonalEdgeStyle;curved=1;fontSize=24;fontStyle=1;editable=1;movable=1;resizable=1;rotatable=1;deletable=1;locked=0;connectable=1;backgroundOutline=0;" parent="7o8EhB13gYxt9ykmUNno-130" target="7o8EhB13gYxt9ykmUNno-135" edge="1">
          <mxGeometry width="50" height="50" relative="1" as="geometry">
            <mxPoint x="157" y="148" as="sourcePoint" />
            <mxPoint x="65" y="253.9" as="targetPoint" />
          </mxGeometry>
        </mxCell>
        <mxCell id="7o8EhB13gYxt9ykmUNno-159" value="&lt;font&gt;Upload&lt;/font&gt;" style="edgeLabel;html=1;align=center;verticalAlign=middle;resizable=1;points=[];fontSize=24;fontStyle=1;editable=1;movable=1;rotatable=1;deletable=1;locked=0;connectable=1;backgroundOutline=0;" parent="7o8EhB13gYxt9ykmUNno-158" connectable="0" vertex="1">
          <mxGeometry x="-0.2293" y="-3" relative="1" as="geometry">
            <mxPoint x="2" y="58" as="offset" />
          </mxGeometry>
        </mxCell>
        <mxCell id="E_nfjoJv9hcRK9cuyujS-1" value="Share Notes" style="rounded=1;whiteSpace=wrap;html=1;fontSize=24;fontStyle=1;editable=1;movable=1;resizable=1;rotatable=1;deletable=1;locked=0;connectable=1;backgroundOutline=0;" parent="7o8EhB13gYxt9ykmUNno-130" vertex="1">
          <mxGeometry x="175" y="320" width="115" height="50" as="geometry" />
        </mxCell>
        <mxCell id="Z_lRhfTax4ggt8AZdCFU-1" value="" style="endArrow=classic;html=1;rounded=0;exitX=0.5;exitY=0;exitDx=0;exitDy=0;entryX=0.152;entryY=0.974;entryDx=0;entryDy=0;entryPerimeter=0;edgeStyle=orthogonalEdgeStyle;curved=1;fontSize=24;fontStyle=1;editable=1;movable=1;resizable=1;rotatable=1;deletable=1;locked=0;connectable=1;backgroundOutline=0;" parent="7o8EhB13gYxt9ykmUNno-130" edge="1">
          <mxGeometry width="50" height="50" relative="1" as="geometry">
            <mxPoint x="81" y="280.3" as="sourcePoint" />
            <mxPoint x="163.98000000000002" y="161.00000000000006" as="targetPoint" />
            <Array as="points">
              <mxPoint x="164.5" y="280.3" />
            </Array>
          </mxGeometry>
        </mxCell>
        <mxCell id="Z_lRhfTax4ggt8AZdCFU-4" value="&lt;font&gt;Done&lt;/font&gt;" style="edgeLabel;html=1;align=center;verticalAlign=middle;resizable=1;points=[];fontSize=24;fontStyle=1;editable=1;movable=1;rotatable=1;deletable=1;locked=0;connectable=1;backgroundOutline=0;" parent="Z_lRhfTax4ggt8AZdCFU-1" connectable="0" vertex="1">
          <mxGeometry x="0.1758" y="19" relative="1" as="geometry">
            <mxPoint as="offset" />
          </mxGeometry>
        </mxCell>
        <mxCell id="Z_lRhfTax4ggt8AZdCFU-5" value="" style="endArrow=classic;html=1;rounded=0;entryX=0.717;entryY=1.021;entryDx=0;entryDy=0;entryPerimeter=0;exitX=0.57;exitY=0.021;exitDx=0;exitDy=0;exitPerimeter=0;fontSize=24;fontStyle=1;editable=1;movable=1;resizable=1;rotatable=1;deletable=1;locked=0;connectable=1;backgroundOutline=0;" parent="7o8EhB13gYxt9ykmUNno-130" edge="1">
          <mxGeometry width="50" height="50" relative="1" as="geometry">
            <mxPoint x="239.54999999999995" y="319.04999999999995" as="sourcePoint" />
            <mxPoint x="240.45499999999993" y="160.04999999999995" as="targetPoint" />
          </mxGeometry>
        </mxCell>
        <mxCell id="Z_lRhfTax4ggt8AZdCFU-9" value="&lt;font&gt;Done&lt;/font&gt;" style="edgeLabel;html=1;align=center;verticalAlign=middle;resizable=1;points=[];fontSize=24;fontStyle=1;editable=1;movable=1;rotatable=1;deletable=1;locked=0;connectable=1;backgroundOutline=0;" parent="Z_lRhfTax4ggt8AZdCFU-5" connectable="0" vertex="1">
          <mxGeometry x="-0.4294" y="-1" relative="1" as="geometry">
            <mxPoint as="offset" />
          </mxGeometry>
        </mxCell>
        <mxCell id="Z_lRhfTax4ggt8AZdCFU-7" value="" style="endArrow=classic;html=1;rounded=0;entryX=1;entryY=1;entryDx=0;entryDy=0;edgeStyle=orthogonalEdgeStyle;curved=1;fontSize=24;fontStyle=1;editable=1;movable=1;resizable=1;rotatable=1;deletable=1;locked=0;connectable=1;backgroundOutline=0;" parent="7o8EhB13gYxt9ykmUNno-130" edge="1">
          <mxGeometry width="50" height="50" relative="1" as="geometry">
            <mxPoint x="334" y="289" as="sourcePoint" />
            <mxPoint x="272" y="158" as="targetPoint" />
          </mxGeometry>
        </mxCell>
        <mxCell id="Z_lRhfTax4ggt8AZdCFU-8" value="&lt;font&gt;Done&lt;/font&gt;" style="edgeLabel;html=1;align=center;verticalAlign=middle;resizable=1;points=[];fontSize=24;fontStyle=1;editable=1;movable=1;rotatable=1;deletable=1;locked=0;connectable=1;backgroundOutline=0;" parent="Z_lRhfTax4ggt8AZdCFU-7" connectable="0" vertex="1">
          <mxGeometry x="0.13" y="-8" relative="1" as="geometry">
            <mxPoint as="offset" />
          </mxGeometry>
        </mxCell>
        <mxCell id="FIExH7QmCzMLWhxPW_MM-21" style="edgeStyle=orthogonalEdgeStyle;rounded=0;orthogonalLoop=1;jettySize=auto;html=1;exitX=0.5;exitY=1;exitDx=0;exitDy=0;fontSize=24;fontStyle=1;editable=1;movable=1;resizable=1;rotatable=1;deletable=1;locked=0;connectable=1;backgroundOutline=0;strokeWidth=3;" parent="1" edge="1" source="FIExH7QmCzMLWhxPW_MM-35">
          <mxGeometry relative="1" as="geometry">
            <mxPoint x="1866.571271623884" y="1780.1428920200897" as="targetPoint" />
            <mxPoint x="2196.4999999999995" y="1142.0000000000002" as="sourcePoint" />
            <Array as="points">
              <mxPoint x="1867" y="1492" />
            </Array>
          </mxGeometry>
        </mxCell>
        <mxCell id="7o8EhB13gYxt9ykmUNno-136" value="Generate Summary" style="swimlane;whiteSpace=wrap;html=1;fontSize=24;fontStyle=1;editable=1;movable=1;resizable=1;rotatable=1;deletable=1;locked=0;connectable=1;backgroundOutline=0;strokeWidth=3;startSize=35;" parent="1" vertex="1">
          <mxGeometry x="2080" y="747" width="251" height="391" as="geometry" />
        </mxCell>
        <mxCell id="7o8EhB13gYxt9ykmUNno-137" value="Input" style="rounded=1;whiteSpace=wrap;html=1;fontSize=24;fontStyle=1;editable=1;movable=1;resizable=1;rotatable=1;deletable=1;locked=0;connectable=1;backgroundOutline=0;" parent="7o8EhB13gYxt9ykmUNno-136" vertex="1">
          <mxGeometry x="78" y="122" width="115" height="50" as="geometry" />
        </mxCell>
        <mxCell id="7o8EhB13gYxt9ykmUNno-138" value="View Summary" style="rounded=1;whiteSpace=wrap;html=1;fontSize=24;fontStyle=1;editable=1;movable=1;resizable=1;rotatable=1;deletable=1;locked=0;connectable=1;backgroundOutline=0;" parent="7o8EhB13gYxt9ykmUNno-136" vertex="1">
          <mxGeometry x="69" y="275" width="127" height="66" as="geometry" />
        </mxCell>
        <mxCell id="7o8EhB13gYxt9ykmUNno-139" value="" style="ellipse;html=1;shape=startState;fillColor=#000000;strokeColor=#ff0000;fontSize=24;fontStyle=1;editable=1;movable=1;resizable=1;rotatable=1;deletable=1;locked=0;connectable=1;backgroundOutline=0;" parent="7o8EhB13gYxt9ykmUNno-136" vertex="1">
          <mxGeometry x="118" y="40" width="30" height="30" as="geometry" />
        </mxCell>
        <mxCell id="7o8EhB13gYxt9ykmUNno-140" value="" style="edgeStyle=orthogonalEdgeStyle;html=1;verticalAlign=bottom;endArrow=open;endSize=8;strokeColor=#ff0000;rounded=0;fontSize=24;fontStyle=1;editable=1;movable=1;resizable=1;rotatable=1;deletable=1;locked=0;connectable=1;backgroundOutline=0;" parent="7o8EhB13gYxt9ykmUNno-136" source="7o8EhB13gYxt9ykmUNno-139" edge="1">
          <mxGeometry relative="1" as="geometry">
            <mxPoint x="133" y="121" as="targetPoint" />
          </mxGeometry>
        </mxCell>
        <mxCell id="7o8EhB13gYxt9ykmUNno-161" value="" style="endArrow=classic;html=1;rounded=0;entryX=0.5;entryY=0;entryDx=0;entryDy=0;exitX=0.434;exitY=1.016;exitDx=0;exitDy=0;exitPerimeter=0;fontSize=24;fontStyle=1;editable=1;movable=1;resizable=1;rotatable=1;deletable=1;locked=0;connectable=1;backgroundOutline=0;" parent="7o8EhB13gYxt9ykmUNno-136" source="7o8EhB13gYxt9ykmUNno-137" target="7o8EhB13gYxt9ykmUNno-138" edge="1">
          <mxGeometry width="50" height="50" relative="1" as="geometry">
            <mxPoint x="122" y="175" as="sourcePoint" />
            <mxPoint x="24" y="140" as="targetPoint" />
          </mxGeometry>
        </mxCell>
        <mxCell id="7o8EhB13gYxt9ykmUNno-163" value="&lt;span&gt;Generate Summary&lt;/span&gt;" style="edgeLabel;html=1;align=center;verticalAlign=middle;resizable=1;points=[];fontSize=24;fontStyle=1;editable=1;movable=1;rotatable=1;deletable=1;locked=0;connectable=1;backgroundOutline=0;" parent="7o8EhB13gYxt9ykmUNno-161" connectable="0" vertex="1">
          <mxGeometry x="-0.2346" relative="1" as="geometry">
            <mxPoint as="offset" />
          </mxGeometry>
        </mxCell>
        <mxCell id="7o8EhB13gYxt9ykmUNno-166" value="" style="endArrow=classic;html=1;rounded=0;edgeStyle=orthogonalEdgeStyle;curved=1;entryX=0.371;entryY=0.012;entryDx=0;entryDy=0;entryPerimeter=0;fontSize=24;fontStyle=1;editable=1;movable=1;resizable=1;rotatable=1;deletable=1;locked=0;connectable=1;backgroundOutline=0;strokeWidth=3;" parent="1" edge="1">
          <mxGeometry width="50" height="50" relative="1" as="geometry">
            <mxPoint x="1333" y="557" as="sourcePoint" />
            <mxPoint x="575.1209999999996" y="750.6239999999998" as="targetPoint" />
          </mxGeometry>
        </mxCell>
        <mxCell id="7o8EhB13gYxt9ykmUNno-168" value="" style="endArrow=classic;html=1;rounded=0;exitX=0.654;exitY=1.022;exitDx=0;exitDy=0;entryX=0.468;entryY=-0.011;entryDx=0;entryDy=0;entryPerimeter=0;exitPerimeter=0;fontSize=24;fontStyle=1;editable=1;movable=1;resizable=1;rotatable=1;deletable=1;locked=0;connectable=1;backgroundOutline=0;strokeWidth=3;" parent="1" source="7o8EhB13gYxt9ykmUNno-119" target="7o8EhB13gYxt9ykmUNno-130" edge="1">
          <mxGeometry width="50" height="50" relative="1" as="geometry">
            <mxPoint x="1264" y="626" as="sourcePoint" />
            <mxPoint x="1107" y="777" as="targetPoint" />
          </mxGeometry>
        </mxCell>
        <mxCell id="Z_lRhfTax4ggt8AZdCFU-77" value="&lt;font&gt;Select Notes Sharing&lt;/font&gt;" style="edgeLabel;html=1;align=center;verticalAlign=middle;resizable=1;points=[];fontSize=24;fontStyle=1;editable=1;movable=1;rotatable=1;deletable=1;locked=0;connectable=1;backgroundOutline=0;" parent="7o8EhB13gYxt9ykmUNno-168" connectable="0" vertex="1">
          <mxGeometry x="-0.1576" y="2" relative="1" as="geometry">
            <mxPoint as="offset" />
          </mxGeometry>
        </mxCell>
        <mxCell id="7o8EhB13gYxt9ykmUNno-169" value="" style="endArrow=classic;html=1;rounded=0;exitX=1;exitY=0.75;exitDx=0;exitDy=0;edgeStyle=orthogonalEdgeStyle;curved=1;entryX=0.5;entryY=0;entryDx=0;entryDy=0;fontSize=24;fontStyle=1;editable=1;movable=1;resizable=1;rotatable=1;deletable=1;locked=0;connectable=1;backgroundOutline=0;strokeWidth=3;" parent="1" source="7o8EhB13gYxt9ykmUNno-119" target="Z_lRhfTax4ggt8AZdCFU-15" edge="1">
          <mxGeometry width="50" height="50" relative="1" as="geometry">
            <mxPoint x="1329" y="629" as="sourcePoint" />
            <mxPoint x="1773" y="771" as="targetPoint" />
          </mxGeometry>
        </mxCell>
        <mxCell id="Z_lRhfTax4ggt8AZdCFU-74" value="&lt;font&gt;Track Study Progress&amp;nbsp;&lt;/font&gt;" style="edgeLabel;html=1;align=center;verticalAlign=middle;resizable=1;points=[];fontSize=24;fontStyle=1;editable=1;movable=1;rotatable=1;deletable=1;locked=0;connectable=1;backgroundOutline=0;" parent="7o8EhB13gYxt9ykmUNno-169" connectable="0" vertex="1">
          <mxGeometry x="0.6051" y="-57" relative="1" as="geometry">
            <mxPoint as="offset" />
          </mxGeometry>
        </mxCell>
        <mxCell id="Z_lRhfTax4ggt8AZdCFU-6" value="" style="endArrow=classic;html=1;rounded=0;exitX=1.013;exitY=0.705;exitDx=0;exitDy=0;exitPerimeter=0;edgeStyle=orthogonalEdgeStyle;curved=1;fontSize=24;fontStyle=1;editable=1;movable=1;resizable=1;rotatable=1;deletable=1;locked=0;connectable=1;backgroundOutline=0;" parent="1" edge="1">
          <mxGeometry width="50" height="50" relative="1" as="geometry">
            <mxPoint x="1555.4949999999994" y="873.25" as="sourcePoint" />
            <mxPoint x="1680" y="1034" as="targetPoint" />
          </mxGeometry>
        </mxCell>
        <mxCell id="Z_lRhfTax4ggt8AZdCFU-12" value="&lt;font&gt;Access&lt;/font&gt;" style="edgeLabel;html=1;align=center;verticalAlign=middle;resizable=1;points=[];fontSize=24;fontStyle=1;editable=1;movable=1;rotatable=1;deletable=1;locked=0;connectable=1;backgroundOutline=0;" parent="Z_lRhfTax4ggt8AZdCFU-6" connectable="0" vertex="1">
          <mxGeometry x="-0.2763" y="-33" relative="1" as="geometry">
            <mxPoint as="offset" />
          </mxGeometry>
        </mxCell>
        <mxCell id="FIExH7QmCzMLWhxPW_MM-17" style="edgeStyle=orthogonalEdgeStyle;rounded=0;orthogonalLoop=1;jettySize=auto;html=1;entryX=0.5;entryY=0;entryDx=0;entryDy=0;fontSize=24;fontStyle=1;editable=1;movable=1;resizable=1;rotatable=1;deletable=1;locked=0;connectable=1;backgroundOutline=0;strokeWidth=3;" parent="1" source="FIExH7QmCzMLWhxPW_MM-34" target="Z_lRhfTax4ggt8AZdCFU-141" edge="1">
          <mxGeometry relative="1" as="geometry">
            <Array as="points">
              <mxPoint x="1854" y="1361" />
              <mxPoint x="1854" y="1361" />
            </Array>
          </mxGeometry>
        </mxCell>
        <mxCell id="Z_lRhfTax4ggt8AZdCFU-15" value="Tracking Progress&amp;nbsp;" style="swimlane;whiteSpace=wrap;html=1;fontSize=24;fontStyle=1;editable=1;movable=1;resizable=1;rotatable=1;deletable=1;locked=0;connectable=1;backgroundOutline=0;strokeWidth=3;startSize=40;" parent="1" vertex="1">
          <mxGeometry x="1790" y="749" width="251" height="391" as="geometry" />
        </mxCell>
        <mxCell id="Z_lRhfTax4ggt8AZdCFU-16" value="Track Progress" style="rounded=1;whiteSpace=wrap;html=1;fontSize=24;fontStyle=1;editable=1;movable=1;resizable=1;rotatable=1;deletable=1;locked=0;connectable=1;backgroundOutline=0;" parent="Z_lRhfTax4ggt8AZdCFU-15" vertex="1">
          <mxGeometry x="78" y="122" width="115" height="50" as="geometry" />
        </mxCell>
        <mxCell id="Z_lRhfTax4ggt8AZdCFU-17" value="" style="ellipse;html=1;shape=startState;fillColor=#000000;strokeColor=#ff0000;fontSize=24;fontStyle=1;editable=1;movable=1;resizable=1;rotatable=1;deletable=1;locked=0;connectable=1;backgroundOutline=0;" parent="Z_lRhfTax4ggt8AZdCFU-15" vertex="1">
          <mxGeometry x="118" y="47" width="30" height="30" as="geometry" />
        </mxCell>
        <mxCell id="Z_lRhfTax4ggt8AZdCFU-18" value="" style="edgeStyle=orthogonalEdgeStyle;html=1;verticalAlign=bottom;endArrow=open;endSize=8;strokeColor=#ff0000;rounded=0;fontSize=24;fontStyle=1;editable=1;movable=1;resizable=1;rotatable=1;deletable=1;locked=0;connectable=1;backgroundOutline=0;" parent="Z_lRhfTax4ggt8AZdCFU-15" source="Z_lRhfTax4ggt8AZdCFU-17" edge="1">
          <mxGeometry relative="1" as="geometry">
            <mxPoint x="133" y="121" as="targetPoint" />
          </mxGeometry>
        </mxCell>
        <mxCell id="Z_lRhfTax4ggt8AZdCFU-19" value="" style="curved=1;endArrow=classic;html=1;rounded=0;entryX=0.841;entryY=1.009;entryDx=0;entryDy=0;entryPerimeter=0;fontSize=24;fontStyle=1;editable=1;movable=1;resizable=1;rotatable=1;deletable=1;locked=0;connectable=1;backgroundOutline=0;" parent="Z_lRhfTax4ggt8AZdCFU-15" target="Z_lRhfTax4ggt8AZdCFU-16" edge="1">
          <mxGeometry width="50" height="50" relative="1" as="geometry">
            <mxPoint x="92" y="175" as="sourcePoint" />
            <mxPoint x="99.26999999999998" y="287.20000000000005" as="targetPoint" />
            <Array as="points">
              <mxPoint x="92" y="231" />
              <mxPoint x="132" y="311" />
              <mxPoint x="175" y="251" />
            </Array>
          </mxGeometry>
        </mxCell>
        <mxCell id="Z_lRhfTax4ggt8AZdCFU-22" value="&lt;font&gt;View Progress&lt;/font&gt;" style="edgeLabel;html=1;align=center;verticalAlign=middle;resizable=1;points=[];fontSize=24;fontStyle=1;editable=1;movable=1;rotatable=1;deletable=1;locked=0;connectable=1;backgroundOutline=0;" parent="Z_lRhfTax4ggt8AZdCFU-19" connectable="0" vertex="1">
          <mxGeometry x="-0.3641" y="-4" relative="1" as="geometry">
            <mxPoint x="8" y="48" as="offset" />
          </mxGeometry>
        </mxCell>
        <mxCell id="FIExH7QmCzMLWhxPW_MM-19" style="edgeStyle=orthogonalEdgeStyle;rounded=0;orthogonalLoop=1;jettySize=auto;html=1;entryX=0.25;entryY=0;entryDx=0;entryDy=0;exitX=0.5;exitY=1;exitDx=0;exitDy=0;fontSize=24;fontStyle=1;editable=1;movable=1;resizable=1;rotatable=1;deletable=1;locked=0;connectable=1;backgroundOutline=0;strokeWidth=3;" parent="1" source="Z_lRhfTax4ggt8AZdCFU-23" edge="1">
          <mxGeometry relative="1" as="geometry">
            <mxPoint x="991" y="1461" as="sourcePoint" />
            <mxPoint x="1819.25" y="1781" as="targetPoint" />
            <Array as="points">
              <mxPoint x="1001" y="1530" />
              <mxPoint x="1819" y="1530" />
            </Array>
          </mxGeometry>
        </mxCell>
        <mxCell id="Z_lRhfTax4ggt8AZdCFU-23" value="SelectingStudyOptions" style="swimlane;whiteSpace=wrap;html=1;fontSize=24;fontStyle=1;editable=1;movable=1;resizable=1;rotatable=1;deletable=1;locked=0;connectable=1;backgroundOutline=0;strokeWidth=3;startSize=47;" parent="1" vertex="1">
          <mxGeometry x="746" y="751" width="509" height="600" as="geometry" />
        </mxCell>
        <mxCell id="Z_lRhfTax4ggt8AZdCFU-24" value="Study Progress" style="rounded=1;whiteSpace=wrap;html=1;fontSize=24;fontStyle=1;editable=1;movable=1;resizable=1;rotatable=1;deletable=1;locked=0;connectable=1;backgroundOutline=0;" parent="Z_lRhfTax4ggt8AZdCFU-23" vertex="1">
          <mxGeometry x="159" y="101" width="119" height="60" as="geometry" />
        </mxCell>
        <mxCell id="Z_lRhfTax4ggt8AZdCFU-25" value="View Score" style="rounded=1;whiteSpace=wrap;html=1;fontSize=24;fontStyle=1;editable=1;movable=1;resizable=1;rotatable=1;deletable=1;locked=0;connectable=1;backgroundOutline=0;" parent="Z_lRhfTax4ggt8AZdCFU-23" vertex="1">
          <mxGeometry x="262" y="488" width="115" height="49" as="geometry" />
        </mxCell>
        <mxCell id="Z_lRhfTax4ggt8AZdCFU-26" value="" style="ellipse;html=1;shape=startState;fillColor=#000000;strokeColor=#ff0000;fontSize=24;fontStyle=1;editable=1;movable=1;resizable=1;rotatable=1;deletable=1;locked=0;connectable=1;backgroundOutline=0;" parent="Z_lRhfTax4ggt8AZdCFU-23" vertex="1">
          <mxGeometry x="200" y="50" width="30" height="30" as="geometry" />
        </mxCell>
        <mxCell id="Z_lRhfTax4ggt8AZdCFU-27" value="" style="edgeStyle=orthogonalEdgeStyle;html=1;verticalAlign=bottom;endArrow=open;endSize=8;strokeColor=#ff0000;rounded=0;fontSize=24;fontStyle=1;editable=1;movable=1;resizable=1;rotatable=1;deletable=1;locked=0;connectable=1;backgroundOutline=0;" parent="Z_lRhfTax4ggt8AZdCFU-23" source="Z_lRhfTax4ggt8AZdCFU-26" edge="1">
          <mxGeometry relative="1" as="geometry">
            <mxPoint x="215" y="111" as="targetPoint" />
          </mxGeometry>
        </mxCell>
        <mxCell id="Z_lRhfTax4ggt8AZdCFU-31" value="" style="endArrow=classic;html=1;rounded=0;edgeStyle=orthogonalEdgeStyle;curved=1;entryX=0.119;entryY=1.007;entryDx=0;entryDy=0;entryPerimeter=0;fontSize=24;fontStyle=1;editable=1;movable=1;resizable=1;rotatable=1;deletable=1;locked=0;connectable=1;backgroundOutline=0;" parent="Z_lRhfTax4ggt8AZdCFU-23" target="Z_lRhfTax4ggt8AZdCFU-24" edge="1">
          <mxGeometry width="50" height="50" relative="1" as="geometry">
            <mxPoint x="157" y="148" as="sourcePoint" />
            <mxPoint x="75" y="297" as="targetPoint" />
            <Array as="points">
              <mxPoint x="65" y="148" />
              <mxPoint x="65" y="257" />
              <mxPoint x="173" y="257" />
            </Array>
          </mxGeometry>
        </mxCell>
        <mxCell id="Z_lRhfTax4ggt8AZdCFU-32" value="&lt;span&gt;&amp;nbsp; &amp;nbsp; Select Progress&lt;/span&gt;" style="edgeLabel;html=1;align=center;verticalAlign=middle;resizable=1;points=[];fontSize=24;fontStyle=1;editable=1;movable=1;rotatable=1;deletable=1;locked=0;connectable=1;backgroundOutline=0;" parent="Z_lRhfTax4ggt8AZdCFU-31" connectable="0" vertex="1">
          <mxGeometry x="-0.2293" y="-3" relative="1" as="geometry">
            <mxPoint x="16" y="58" as="offset" />
          </mxGeometry>
        </mxCell>
        <mxCell id="Z_lRhfTax4ggt8AZdCFU-33" value="Attempting Quiz" style="rounded=1;whiteSpace=wrap;html=1;fontSize=24;fontStyle=1;editable=1;movable=1;resizable=1;rotatable=1;deletable=1;locked=0;connectable=1;backgroundOutline=0;" parent="Z_lRhfTax4ggt8AZdCFU-23" vertex="1">
          <mxGeometry x="194" y="242" width="130" height="65" as="geometry" />
        </mxCell>
        <mxCell id="Z_lRhfTax4ggt8AZdCFU-40" value="" style="endArrow=classic;html=1;rounded=0;edgeStyle=orthogonalEdgeStyle;entryX=1;entryY=0.5;entryDx=0;entryDy=0;fontSize=24;fontStyle=1;editable=1;movable=1;resizable=1;rotatable=1;deletable=1;locked=0;connectable=1;backgroundOutline=0;exitX=1;exitY=0.5;exitDx=0;exitDy=0;" parent="Z_lRhfTax4ggt8AZdCFU-23" target="Z_lRhfTax4ggt8AZdCFU-24" edge="1" source="Z_lRhfTax4ggt8AZdCFU-25">
          <mxGeometry width="50" height="50" relative="1" as="geometry">
            <mxPoint x="393" y="518" as="sourcePoint" />
            <mxPoint x="296" y="131" as="targetPoint" />
            <Array as="points">
              <mxPoint x="377" y="519" />
              <mxPoint x="446" y="519" />
              <mxPoint x="446" y="131" />
            </Array>
          </mxGeometry>
        </mxCell>
        <mxCell id="Z_lRhfTax4ggt8AZdCFU-47" value="&lt;font&gt;View Score&lt;/font&gt;" style="edgeLabel;html=1;align=center;verticalAlign=middle;resizable=1;points=[];fontSize=24;fontStyle=1;editable=1;movable=1;rotatable=1;deletable=1;locked=0;connectable=1;backgroundOutline=0;" parent="Z_lRhfTax4ggt8AZdCFU-40" connectable="0" vertex="1">
          <mxGeometry x="-0.1182" y="3" relative="1" as="geometry">
            <mxPoint as="offset" />
          </mxGeometry>
        </mxCell>
        <mxCell id="Z_lRhfTax4ggt8AZdCFU-42" value="" style="endArrow=classic;html=1;rounded=0;exitX=0.5;exitY=1;exitDx=0;exitDy=0;edgeStyle=orthogonalEdgeStyle;curved=1;fontSize=24;fontStyle=1;editable=1;movable=1;resizable=1;rotatable=1;deletable=1;locked=0;connectable=1;backgroundOutline=0;" parent="Z_lRhfTax4ggt8AZdCFU-23" edge="1" source="Z_lRhfTax4ggt8AZdCFU-24">
          <mxGeometry width="50" height="50" relative="1" as="geometry">
            <mxPoint x="222.365" y="172.5" as="sourcePoint" />
            <mxPoint x="246" y="243" as="targetPoint" />
            <Array as="points">
              <mxPoint x="246" y="161" />
            </Array>
          </mxGeometry>
        </mxCell>
        <mxCell id="Z_lRhfTax4ggt8AZdCFU-45" value="&lt;font&gt;Select Quiz&lt;/font&gt;" style="edgeLabel;html=1;align=center;verticalAlign=middle;resizable=1;points=[];fontSize=24;fontStyle=1;editable=1;movable=1;rotatable=1;deletable=1;locked=0;connectable=1;backgroundOutline=0;" parent="Z_lRhfTax4ggt8AZdCFU-42" connectable="0" vertex="1">
          <mxGeometry x="-0.0792" y="2" relative="1" as="geometry">
            <mxPoint as="offset" />
          </mxGeometry>
        </mxCell>
        <mxCell id="Z_lRhfTax4ggt8AZdCFU-100" value="&lt;span style=&quot;text-wrap-mode: nowrap; background-color: rgb(255, 255, 255);&quot;&gt;Quiz Timeout&lt;/span&gt;" style="rounded=1;whiteSpace=wrap;html=1;fontSize=24;fontStyle=1;editable=1;movable=1;resizable=1;rotatable=1;deletable=1;locked=0;connectable=1;backgroundOutline=0;" parent="Z_lRhfTax4ggt8AZdCFU-23" vertex="1">
          <mxGeometry x="260" y="397" width="153" height="75" as="geometry" />
        </mxCell>
        <mxCell id="Z_lRhfTax4ggt8AZdCFU-101" value="&lt;span style=&quot;text-wrap-mode: nowrap; background-color: rgb(255, 255, 255);&quot;&gt;Quiz Completed&lt;/span&gt;" style="rounded=1;whiteSpace=wrap;html=1;fontSize=24;fontStyle=1;editable=1;movable=1;resizable=1;rotatable=1;deletable=1;locked=0;connectable=1;backgroundOutline=0;" parent="Z_lRhfTax4ggt8AZdCFU-23" vertex="1">
          <mxGeometry x="31" y="392" width="200" height="79" as="geometry" />
        </mxCell>
        <mxCell id="Z_lRhfTax4ggt8AZdCFU-102" value="" style="endArrow=classic;html=1;rounded=0;entryX=0.831;entryY=0.984;entryDx=0;entryDy=0;entryPerimeter=0;fontSize=24;fontStyle=1;editable=1;movable=1;resizable=1;rotatable=1;deletable=1;locked=0;connectable=1;backgroundOutline=0;" parent="Z_lRhfTax4ggt8AZdCFU-23" target="Z_lRhfTax4ggt8AZdCFU-33" edge="1">
          <mxGeometry width="50" height="50" relative="1" as="geometry">
            <mxPoint x="369" y="395" as="sourcePoint" />
            <mxPoint x="296" y="312" as="targetPoint" />
          </mxGeometry>
        </mxCell>
        <mxCell id="Z_lRhfTax4ggt8AZdCFU-107" value="&lt;font&gt;retry&amp;nbsp;&lt;/font&gt;" style="edgeLabel;html=1;align=center;verticalAlign=middle;resizable=1;points=[];fontSize=24;fontStyle=1;editable=1;movable=1;rotatable=1;deletable=1;locked=0;connectable=1;backgroundOutline=0;" parent="Z_lRhfTax4ggt8AZdCFU-102" connectable="0" vertex="1">
          <mxGeometry x="-0.3206" y="-4" relative="1" as="geometry">
            <mxPoint as="offset" />
          </mxGeometry>
        </mxCell>
        <mxCell id="Z_lRhfTax4ggt8AZdCFU-103" value="" style="endArrow=classic;html=1;rounded=0;exitX=0;exitY=1;exitDx=0;exitDy=0;entryX=0.368;entryY=0.075;entryDx=0;entryDy=0;entryPerimeter=0;fontSize=24;fontStyle=1;editable=1;movable=1;resizable=1;rotatable=1;deletable=1;locked=0;connectable=1;backgroundOutline=0;" parent="Z_lRhfTax4ggt8AZdCFU-23" source="Z_lRhfTax4ggt8AZdCFU-33" target="Z_lRhfTax4ggt8AZdCFU-101" edge="1">
          <mxGeometry width="50" height="50" relative="1" as="geometry">
            <mxPoint x="118" y="278" as="sourcePoint" />
            <mxPoint x="168" y="228" as="targetPoint" />
          </mxGeometry>
        </mxCell>
        <mxCell id="Z_lRhfTax4ggt8AZdCFU-108" value="&lt;font&gt;success&lt;/font&gt;" style="edgeLabel;html=1;align=center;verticalAlign=middle;resizable=1;points=[];fontSize=24;fontStyle=1;editable=1;movable=1;rotatable=1;deletable=1;locked=0;connectable=1;backgroundOutline=0;" parent="Z_lRhfTax4ggt8AZdCFU-103" connectable="0" vertex="1">
          <mxGeometry x="-0.2466" y="1" relative="1" as="geometry">
            <mxPoint as="offset" />
          </mxGeometry>
        </mxCell>
        <mxCell id="Z_lRhfTax4ggt8AZdCFU-105" value="" style="endArrow=classic;html=1;rounded=0;entryX=0.25;entryY=0;entryDx=0;entryDy=0;exitX=0.457;exitY=1.033;exitDx=0;exitDy=0;exitPerimeter=0;fontSize=24;fontStyle=1;editable=1;movable=1;resizable=1;rotatable=1;deletable=1;locked=0;connectable=1;backgroundOutline=0;" parent="Z_lRhfTax4ggt8AZdCFU-23" source="Z_lRhfTax4ggt8AZdCFU-33" target="Z_lRhfTax4ggt8AZdCFU-100" edge="1">
          <mxGeometry width="50" height="50" relative="1" as="geometry">
            <mxPoint x="250" y="288" as="sourcePoint" />
            <mxPoint x="300" y="238" as="targetPoint" />
          </mxGeometry>
        </mxCell>
        <mxCell id="Z_lRhfTax4ggt8AZdCFU-106" value="&lt;font&gt;fail&lt;/font&gt;" style="edgeLabel;html=1;align=center;verticalAlign=middle;resizable=1;points=[];fontSize=24;fontStyle=1;editable=1;movable=1;rotatable=1;deletable=1;locked=0;connectable=1;backgroundOutline=0;" parent="Z_lRhfTax4ggt8AZdCFU-105" connectable="0" vertex="1">
          <mxGeometry x="-0.061" y="3" relative="1" as="geometry">
            <mxPoint x="1" as="offset" />
          </mxGeometry>
        </mxCell>
        <mxCell id="Z_lRhfTax4ggt8AZdCFU-72" value="" style="endArrow=classic;html=1;rounded=0;exitX=1;exitY=0.25;exitDx=0;exitDy=0;edgeStyle=orthogonalEdgeStyle;curved=1;fontSize=24;fontStyle=1;editable=1;movable=1;resizable=1;rotatable=1;deletable=1;locked=0;connectable=1;backgroundOutline=0;strokeWidth=3;" parent="1" source="7o8EhB13gYxt9ykmUNno-119" target="Z_lRhfTax4ggt8AZdCFU-49" edge="1">
          <mxGeometry width="50" height="50" relative="1" as="geometry">
            <mxPoint x="1492" y="555" as="sourcePoint" />
            <mxPoint x="2582" y="754.4999999999995" as="targetPoint" />
          </mxGeometry>
        </mxCell>
        <mxCell id="FIExH7QmCzMLWhxPW_MM-1" value="&lt;font&gt;Admin Access&lt;/font&gt;" style="edgeLabel;html=1;align=center;verticalAlign=middle;resizable=1;points=[];fontSize=24;fontStyle=1;editable=1;movable=1;rotatable=1;deletable=1;locked=0;connectable=1;backgroundOutline=0;" parent="Z_lRhfTax4ggt8AZdCFU-72" vertex="1" connectable="0">
          <mxGeometry x="0.503" y="-127" relative="1" as="geometry">
            <mxPoint x="76" y="-30" as="offset" />
          </mxGeometry>
        </mxCell>
        <mxCell id="Z_lRhfTax4ggt8AZdCFU-75" value="" style="endArrow=classic;html=1;rounded=0;exitX=0.105;exitY=1.059;exitDx=0;exitDy=0;exitPerimeter=0;edgeStyle=orthogonalEdgeStyle;curved=1;fontSize=24;fontStyle=1;editable=1;movable=1;resizable=1;rotatable=1;deletable=1;locked=0;connectable=1;backgroundOutline=0;strokeWidth=3;" parent="1" edge="1">
          <mxGeometry width="50" height="50" relative="1" as="geometry">
            <mxPoint x="1348.8" y="586.776" as="sourcePoint" />
            <mxPoint x="1012" y="751" as="targetPoint" />
          </mxGeometry>
        </mxCell>
        <mxCell id="Z_lRhfTax4ggt8AZdCFU-76" value="&lt;font&gt;Select Study Progress / Quiz&lt;/font&gt;" style="edgeLabel;html=1;align=center;verticalAlign=middle;resizable=1;points=[];fontSize=24;fontStyle=1;editable=1;movable=1;rotatable=1;deletable=1;locked=0;connectable=1;backgroundOutline=0;" parent="Z_lRhfTax4ggt8AZdCFU-75" connectable="0" vertex="1">
          <mxGeometry x="0.5632" y="53" relative="1" as="geometry">
            <mxPoint x="-1" as="offset" />
          </mxGeometry>
        </mxCell>
        <mxCell id="FIExH7QmCzMLWhxPW_MM-22" style="edgeStyle=orthogonalEdgeStyle;rounded=0;orthogonalLoop=1;jettySize=auto;html=1;entryX=0.75;entryY=0;entryDx=0;entryDy=0;exitX=0.5;exitY=1;exitDx=0;exitDy=0;fontSize=24;fontStyle=1;editable=1;movable=1;resizable=1;rotatable=1;deletable=1;locked=0;connectable=1;backgroundOutline=0;strokeWidth=3;" parent="1" edge="1" source="FIExH7QmCzMLWhxPW_MM-37">
          <mxGeometry relative="1" as="geometry">
            <mxPoint x="2503.5" y="1138" as="sourcePoint" />
            <mxPoint x="1884.75" y="1780" as="targetPoint" />
            <Array as="points">
              <mxPoint x="1884" y="1521" />
            </Array>
          </mxGeometry>
        </mxCell>
        <mxCell id="Z_lRhfTax4ggt8AZdCFU-78" value="QA Section" style="swimlane;whiteSpace=wrap;html=1;fontSize=24;fontStyle=1;spacing=2;editable=1;movable=1;resizable=1;rotatable=1;deletable=1;locked=0;connectable=1;backgroundOutline=0;strokeWidth=3;startSize=32;" parent="1" vertex="1">
          <mxGeometry x="2378" y="747" width="251" height="391" as="geometry" />
        </mxCell>
        <mxCell id="Z_lRhfTax4ggt8AZdCFU-79" value="Ask Question" style="rounded=1;whiteSpace=wrap;html=1;fontSize=24;fontStyle=1;editable=1;movable=1;resizable=1;rotatable=1;deletable=1;locked=0;connectable=1;backgroundOutline=0;" parent="Z_lRhfTax4ggt8AZdCFU-78" vertex="1">
          <mxGeometry x="78" y="122" width="115" height="50" as="geometry" />
        </mxCell>
        <mxCell id="Z_lRhfTax4ggt8AZdCFU-80" value="View Answer" style="rounded=1;whiteSpace=wrap;html=1;fontSize=24;fontStyle=1;editable=1;movable=1;resizable=1;rotatable=1;deletable=1;locked=0;connectable=1;backgroundOutline=0;" parent="Z_lRhfTax4ggt8AZdCFU-78" vertex="1">
          <mxGeometry x="69" y="291" width="115" height="50" as="geometry" />
        </mxCell>
        <mxCell id="Z_lRhfTax4ggt8AZdCFU-81" value="" style="ellipse;html=1;shape=startState;fillColor=#000000;strokeColor=#ff0000;fontSize=24;fontStyle=1;editable=1;movable=1;resizable=1;rotatable=1;deletable=1;locked=0;connectable=1;backgroundOutline=0;" parent="Z_lRhfTax4ggt8AZdCFU-78" vertex="1">
          <mxGeometry x="119" y="38" width="30" height="30" as="geometry" />
        </mxCell>
        <mxCell id="Z_lRhfTax4ggt8AZdCFU-82" value="" style="edgeStyle=orthogonalEdgeStyle;html=1;verticalAlign=bottom;endArrow=open;endSize=8;strokeColor=#ff0000;rounded=0;fontSize=24;fontStyle=1;editable=1;movable=1;resizable=1;rotatable=1;deletable=1;locked=0;connectable=1;backgroundOutline=0;" parent="Z_lRhfTax4ggt8AZdCFU-78" source="Z_lRhfTax4ggt8AZdCFU-81" edge="1">
          <mxGeometry relative="1" as="geometry">
            <mxPoint x="133" y="121" as="targetPoint" />
          </mxGeometry>
        </mxCell>
        <mxCell id="Z_lRhfTax4ggt8AZdCFU-83" value="" style="endArrow=classic;html=1;rounded=0;entryX=0.5;entryY=0;entryDx=0;entryDy=0;exitX=0.434;exitY=1.016;exitDx=0;exitDy=0;exitPerimeter=0;fontSize=24;fontStyle=1;editable=1;movable=1;resizable=1;rotatable=1;deletable=1;locked=0;connectable=1;backgroundOutline=0;" parent="Z_lRhfTax4ggt8AZdCFU-78" source="Z_lRhfTax4ggt8AZdCFU-79" target="Z_lRhfTax4ggt8AZdCFU-80" edge="1">
          <mxGeometry width="50" height="50" relative="1" as="geometry">
            <mxPoint x="122" y="175" as="sourcePoint" />
            <mxPoint x="24" y="140" as="targetPoint" />
          </mxGeometry>
        </mxCell>
        <mxCell id="Z_lRhfTax4ggt8AZdCFU-84" value="&lt;font&gt;Submit&lt;/font&gt;" style="edgeLabel;html=1;align=center;verticalAlign=middle;resizable=1;points=[];fontSize=24;fontStyle=1;editable=1;movable=1;rotatable=1;deletable=1;locked=0;connectable=1;backgroundOutline=0;" parent="Z_lRhfTax4ggt8AZdCFU-83" connectable="0" vertex="1">
          <mxGeometry x="-0.2346" relative="1" as="geometry">
            <mxPoint as="offset" />
          </mxGeometry>
        </mxCell>
        <mxCell id="Z_lRhfTax4ggt8AZdCFU-86" value="" style="endArrow=classic;html=1;rounded=0;entryX=0.5;entryY=0;entryDx=0;entryDy=0;edgeStyle=orthogonalEdgeStyle;curved=1;fontSize=24;fontStyle=1;editable=1;movable=1;resizable=1;rotatable=1;deletable=1;locked=0;connectable=1;backgroundOutline=0;strokeWidth=3;" parent="1" target="7o8EhB13gYxt9ykmUNno-136" edge="1">
          <mxGeometry width="50" height="50" relative="1" as="geometry">
            <mxPoint x="1493" y="561" as="sourcePoint" />
            <mxPoint x="2220.6" y="814.1209999999999" as="targetPoint" />
          </mxGeometry>
        </mxCell>
        <mxCell id="Z_lRhfTax4ggt8AZdCFU-88" value="&lt;font&gt;Select Summary&lt;/font&gt;" style="edgeLabel;html=1;align=center;verticalAlign=middle;resizable=1;points=[];fontSize=24;fontStyle=1;editable=1;movable=1;rotatable=1;deletable=1;locked=0;connectable=1;backgroundOutline=0;" parent="Z_lRhfTax4ggt8AZdCFU-86" connectable="0" vertex="1">
          <mxGeometry x="0.1318" y="-66" relative="1" as="geometry">
            <mxPoint x="128" y="21" as="offset" />
          </mxGeometry>
        </mxCell>
        <mxCell id="Z_lRhfTax4ggt8AZdCFU-89" value="" style="endArrow=classic;html=1;rounded=0;entryX=0.384;entryY=0.007;entryDx=0;entryDy=0;entryPerimeter=0;edgeStyle=orthogonalEdgeStyle;curved=1;fontSize=24;fontStyle=1;editable=1;movable=1;resizable=1;rotatable=1;deletable=1;locked=0;connectable=1;backgroundOutline=0;strokeWidth=3;" parent="1" target="Z_lRhfTax4ggt8AZdCFU-78" edge="1">
          <mxGeometry width="50" height="50" relative="1" as="geometry">
            <mxPoint x="1493" y="548" as="sourcePoint" />
            <mxPoint x="2073" y="789" as="targetPoint" />
          </mxGeometry>
        </mxCell>
        <mxCell id="Z_lRhfTax4ggt8AZdCFU-90" value="&lt;font&gt;Ask Question&lt;/font&gt;" style="edgeLabel;html=1;align=center;verticalAlign=middle;resizable=1;points=[];fontSize=24;fontStyle=1;editable=1;movable=1;rotatable=1;deletable=1;locked=0;connectable=1;backgroundOutline=0;" parent="Z_lRhfTax4ggt8AZdCFU-89" connectable="0" vertex="1">
          <mxGeometry x="0.8122" y="-52" relative="1" as="geometry">
            <mxPoint as="offset" />
          </mxGeometry>
        </mxCell>
        <mxCell id="Z_lRhfTax4ggt8AZdCFU-91" value="" style="endArrow=classic;html=1;rounded=0;exitX=0;exitY=0.75;exitDx=0;exitDy=0;entryX=0.907;entryY=0.092;entryDx=0;entryDy=0;entryPerimeter=0;fontSize=24;fontStyle=1;editable=1;movable=1;resizable=1;rotatable=1;deletable=1;locked=0;connectable=1;backgroundOutline=0;strokeWidth=3;" parent="1" source="7o8EhB13gYxt9ykmUNno-113" edge="1">
          <mxGeometry width="50" height="50" relative="1" as="geometry">
            <mxPoint x="1927" y="414.5" as="sourcePoint" />
            <mxPoint x="1489.1199999999994" y="528.8879999999997" as="targetPoint" />
          </mxGeometry>
        </mxCell>
        <mxCell id="Z_lRhfTax4ggt8AZdCFU-112" value="&lt;font&gt;Success&amp;nbsp;&lt;/font&gt;" style="edgeLabel;html=1;align=center;verticalAlign=middle;resizable=1;points=[];fontSize=24;fontStyle=1;editable=1;movable=1;rotatable=1;deletable=1;locked=0;connectable=1;backgroundOutline=0;" parent="Z_lRhfTax4ggt8AZdCFU-91" connectable="0" vertex="1">
          <mxGeometry x="-0.0904" y="10" relative="1" as="geometry">
            <mxPoint x="-15" as="offset" />
          </mxGeometry>
        </mxCell>
        <mxCell id="Z_lRhfTax4ggt8AZdCFU-110" value="" style="endArrow=classic;html=1;rounded=0;exitX=0.75;exitY=1;exitDx=0;exitDy=0;entryX=0.407;entryY=0.046;entryDx=0;entryDy=0;entryPerimeter=0;fontSize=24;fontStyle=1;editable=1;movable=1;resizable=1;rotatable=1;deletable=1;locked=0;connectable=1;backgroundOutline=0;strokeWidth=3;" parent="1" source="FsJjB8RT-nmozuc2Gc8c-8" target="7o8EhB13gYxt9ykmUNno-113" edge="1">
          <mxGeometry width="50" height="50" relative="1" as="geometry">
            <mxPoint x="1890" y="358" as="sourcePoint" />
            <mxPoint x="1940" y="308" as="targetPoint" />
          </mxGeometry>
        </mxCell>
        <mxCell id="Z_lRhfTax4ggt8AZdCFU-111" value="" style="endArrow=classic;html=1;rounded=0;exitX=0.75;exitY=1;exitDx=0;exitDy=0;entryX=0.611;entryY=0.092;entryDx=0;entryDy=0;entryPerimeter=0;fontSize=24;fontStyle=1;editable=1;movable=1;resizable=1;rotatable=1;deletable=1;locked=0;connectable=1;backgroundOutline=0;strokeWidth=3;" parent="1" edge="1">
          <mxGeometry width="50" height="50" relative="1" as="geometry">
            <mxPoint x="1726" y="264" as="sourcePoint" />
            <mxPoint x="1646.2649999999999" y="371.60000000000014" as="targetPoint" />
          </mxGeometry>
        </mxCell>
        <mxCell id="FIExH7QmCzMLWhxPW_MM-25" style="edgeStyle=orthogonalEdgeStyle;rounded=0;orthogonalLoop=1;jettySize=auto;html=1;entryX=1;entryY=0.5;entryDx=0;entryDy=0;exitX=0.5;exitY=1;exitDx=0;exitDy=0;fontSize=24;fontStyle=1;editable=1;movable=1;resizable=1;rotatable=1;deletable=1;locked=0;connectable=1;backgroundOutline=0;strokeWidth=3;" parent="1" source="Z_lRhfTax4ggt8AZdCFU-114" target="Z_lRhfTax4ggt8AZdCFU-141" edge="1">
          <mxGeometry relative="1" as="geometry" />
        </mxCell>
        <mxCell id="Z_lRhfTax4ggt8AZdCFU-114" value="Password Reset&amp;nbsp;" style="swimlane;whiteSpace=wrap;html=1;fontSize=24;fontStyle=1;editable=1;movable=1;resizable=1;rotatable=1;deletable=1;locked=0;connectable=1;backgroundOutline=0;strokeWidth=3;startSize=33;" parent="1" vertex="1">
          <mxGeometry x="3323" y="746" width="251" height="570" as="geometry" />
        </mxCell>
        <mxCell id="Z_lRhfTax4ggt8AZdCFU-115" value="Input Email" style="rounded=1;whiteSpace=wrap;html=1;fontSize=24;fontStyle=1;editable=1;movable=1;resizable=1;rotatable=1;deletable=1;locked=0;connectable=1;backgroundOutline=0;" parent="Z_lRhfTax4ggt8AZdCFU-114" vertex="1">
          <mxGeometry x="78" y="122" width="115" height="50" as="geometry" />
        </mxCell>
        <mxCell id="Z_lRhfTax4ggt8AZdCFU-123" value="" style="edgeStyle=orthogonalEdgeStyle;rounded=0;orthogonalLoop=1;jettySize=auto;html=1;fontSize=24;fontStyle=1;editable=1;movable=1;resizable=1;rotatable=1;deletable=1;locked=0;connectable=1;backgroundOutline=0;" parent="Z_lRhfTax4ggt8AZdCFU-114" source="Z_lRhfTax4ggt8AZdCFU-116" target="Z_lRhfTax4ggt8AZdCFU-121" edge="1">
          <mxGeometry relative="1" as="geometry" />
        </mxCell>
        <mxCell id="Z_lRhfTax4ggt8AZdCFU-116" value="Send OTP" style="rounded=1;whiteSpace=wrap;html=1;fontSize=24;fontStyle=1;editable=1;movable=1;resizable=1;rotatable=1;deletable=1;locked=0;connectable=1;backgroundOutline=0;" parent="Z_lRhfTax4ggt8AZdCFU-114" vertex="1">
          <mxGeometry x="71" y="276" width="115" height="50" as="geometry" />
        </mxCell>
        <mxCell id="Z_lRhfTax4ggt8AZdCFU-117" value="" style="ellipse;html=1;shape=startState;fillColor=#000000;strokeColor=#ff0000;fontSize=24;fontStyle=1;editable=1;movable=1;resizable=1;rotatable=1;deletable=1;locked=0;connectable=1;backgroundOutline=0;" parent="Z_lRhfTax4ggt8AZdCFU-114" vertex="1">
          <mxGeometry x="118" y="42" width="30" height="30" as="geometry" />
        </mxCell>
        <mxCell id="Z_lRhfTax4ggt8AZdCFU-118" value="" style="edgeStyle=orthogonalEdgeStyle;html=1;verticalAlign=bottom;endArrow=open;endSize=8;strokeColor=#ff0000;rounded=0;fontSize=24;fontStyle=1;editable=1;movable=1;resizable=1;rotatable=1;deletable=1;locked=0;connectable=1;backgroundOutline=0;" parent="Z_lRhfTax4ggt8AZdCFU-114" source="Z_lRhfTax4ggt8AZdCFU-117" edge="1">
          <mxGeometry relative="1" as="geometry">
            <mxPoint x="133" y="121" as="targetPoint" />
          </mxGeometry>
        </mxCell>
        <mxCell id="Z_lRhfTax4ggt8AZdCFU-119" value="" style="endArrow=classic;html=1;rounded=0;entryX=0.5;entryY=0;entryDx=0;entryDy=0;exitX=0.434;exitY=1.016;exitDx=0;exitDy=0;exitPerimeter=0;fontSize=24;fontStyle=1;editable=1;movable=1;resizable=1;rotatable=1;deletable=1;locked=0;connectable=1;backgroundOutline=0;" parent="Z_lRhfTax4ggt8AZdCFU-114" source="Z_lRhfTax4ggt8AZdCFU-115" target="Z_lRhfTax4ggt8AZdCFU-116" edge="1">
          <mxGeometry width="50" height="50" relative="1" as="geometry">
            <mxPoint x="122" y="175" as="sourcePoint" />
            <mxPoint x="24" y="140" as="targetPoint" />
          </mxGeometry>
        </mxCell>
        <mxCell id="Z_lRhfTax4ggt8AZdCFU-120" value="&lt;font&gt;Submit&lt;/font&gt;" style="edgeLabel;html=1;align=center;verticalAlign=middle;resizable=1;points=[];fontSize=24;fontStyle=1;editable=1;movable=1;rotatable=1;deletable=1;locked=0;connectable=1;backgroundOutline=0;" parent="Z_lRhfTax4ggt8AZdCFU-119" connectable="0" vertex="1">
          <mxGeometry x="-0.2346" relative="1" as="geometry">
            <mxPoint as="offset" />
          </mxGeometry>
        </mxCell>
        <mxCell id="Z_lRhfTax4ggt8AZdCFU-121" value="Verify&amp;nbsp;" style="rounded=1;whiteSpace=wrap;html=1;fontSize=24;fontStyle=1;editable=1;movable=1;resizable=1;rotatable=1;deletable=1;locked=0;connectable=1;backgroundOutline=0;" parent="Z_lRhfTax4ggt8AZdCFU-114" vertex="1">
          <mxGeometry x="71" y="380" width="115" height="50" as="geometry" />
        </mxCell>
        <mxCell id="Z_lRhfTax4ggt8AZdCFU-127" value="" style="endArrow=classic;html=1;rounded=0;exitX=1;exitY=1;exitDx=0;exitDy=0;entryX=0.25;entryY=0;entryDx=0;entryDy=0;fontSize=24;fontStyle=1;editable=1;movable=1;resizable=1;rotatable=1;deletable=1;locked=0;connectable=1;backgroundOutline=0;strokeWidth=3;" parent="1" source="FsJjB8RT-nmozuc2Gc8c-8" target="7o8EhB13gYxt9ykmUNno-117" edge="1">
          <mxGeometry width="50" height="50" relative="1" as="geometry">
            <mxPoint x="1865" y="277" as="sourcePoint" />
            <mxPoint x="1972" y="389" as="targetPoint" />
          </mxGeometry>
        </mxCell>
        <mxCell id="Z_lRhfTax4ggt8AZdCFU-128" value="" style="endArrow=classic;html=1;rounded=0;exitX=1;exitY=0.5;exitDx=0;exitDy=0;edgeStyle=orthogonalEdgeStyle;curved=1;entryX=0.5;entryY=0;entryDx=0;entryDy=0;fontSize=24;fontStyle=1;editable=1;movable=1;resizable=1;rotatable=1;deletable=1;locked=0;connectable=1;backgroundOutline=0;strokeWidth=3;" parent="1" source="7o8EhB13gYxt9ykmUNno-117" target="Z_lRhfTax4ggt8AZdCFU-114" edge="1">
          <mxGeometry width="50" height="50" relative="1" as="geometry">
            <mxPoint x="2394" y="497" as="sourcePoint" />
            <mxPoint x="3461" y="835" as="targetPoint" />
          </mxGeometry>
        </mxCell>
        <mxCell id="V_zlflSBCVvjLNrua1hl-4" style="edgeStyle=orthogonalEdgeStyle;rounded=0;orthogonalLoop=1;jettySize=auto;html=1;strokeWidth=3;fontSize=24;" edge="1" parent="1" source="Z_lRhfTax4ggt8AZdCFU-141" target="Z_lRhfTax4ggt8AZdCFU-155">
          <mxGeometry relative="1" as="geometry">
            <mxPoint x="1847.5714285714284" y="1868" as="targetPoint" />
          </mxGeometry>
        </mxCell>
        <mxCell id="Z_lRhfTax4ggt8AZdCFU-141" value="LogOut" style="rounded=1;whiteSpace=wrap;html=1;fontSize=24;fontStyle=1;editable=1;movable=1;resizable=1;rotatable=1;deletable=1;locked=0;connectable=1;backgroundOutline=0;strokeWidth=3;" parent="1" vertex="1">
          <mxGeometry x="1776" y="1780" width="155" height="81" as="geometry" />
        </mxCell>
        <mxCell id="Z_lRhfTax4ggt8AZdCFU-155" value="" style="ellipse;html=1;shape=endState;fillColor=#000000;strokeColor=#ff0000;fontSize=24;fontStyle=1;editable=1;movable=1;resizable=1;rotatable=1;deletable=1;locked=0;connectable=1;backgroundOutline=0;" parent="1" vertex="1">
          <mxGeometry x="1832" y="1976" width="42" height="47" as="geometry" />
        </mxCell>
        <mxCell id="Z_lRhfTax4ggt8AZdCFU-158" value="" style="ellipse;html=1;shape=startState;fillColor=#000000;strokeColor=#ff0000;fontSize=24;fontStyle=1;editable=1;movable=1;resizable=1;rotatable=1;deletable=1;locked=0;connectable=1;backgroundOutline=0;strokeWidth=4;perimeterSpacing=18;" parent="1" vertex="1">
          <mxGeometry x="1788" y="122" width="35" height="39" as="geometry" />
        </mxCell>
        <mxCell id="Z_lRhfTax4ggt8AZdCFU-159" value="" style="edgeStyle=orthogonalEdgeStyle;html=1;verticalAlign=bottom;endArrow=open;endSize=8;strokeColor=#ff0000;rounded=0;fontSize=24;fontStyle=1;editable=1;movable=1;resizable=1;rotatable=1;deletable=1;locked=0;connectable=1;backgroundOutline=0;spacing=5;" parent="1" edge="1">
          <mxGeometry relative="1" as="geometry">
            <mxPoint x="1805" y="208" as="targetPoint" />
            <mxPoint x="1805.5" y="172" as="sourcePoint" />
          </mxGeometry>
        </mxCell>
        <mxCell id="Z_lRhfTax4ggt8AZdCFU-161" value="&lt;font&gt;Start&amp;nbsp;&lt;/font&gt;" style="text;html=1;align=center;verticalAlign=middle;resizable=1;points=[];autosize=1;strokeColor=none;fillColor=none;fontSize=24;fontStyle=1;editable=1;movable=1;rotatable=1;deletable=1;locked=0;connectable=1;backgroundOutline=0;strokeWidth=4;" parent="1" vertex="1">
          <mxGeometry x="1768" y="85" width="75" height="41" as="geometry" />
        </mxCell>
        <mxCell id="FIExH7QmCzMLWhxPW_MM-7" value="" style="endArrow=classic;html=1;rounded=0;entryX=0;entryY=0.5;entryDx=0;entryDy=0;fontSize=24;fontStyle=1;editable=1;movable=1;resizable=1;rotatable=1;deletable=1;locked=0;connectable=1;backgroundOutline=0;strokeWidth=3;" parent="1" target="7o8EhB13gYxt9ykmUNno-113" edge="1">
          <mxGeometry width="50" height="50" relative="1" as="geometry">
            <mxPoint x="1691" y="400" as="sourcePoint" />
            <mxPoint x="1799" y="397.64803625377635" as="targetPoint" />
            <Array as="points" />
          </mxGeometry>
        </mxCell>
        <mxCell id="7o8EhB13gYxt9ykmUNno-113" value="&lt;font&gt;Login&lt;/font&gt;" style="rounded=1;whiteSpace=wrap;html=1;fontSize=24;fontStyle=1;editable=1;movable=1;resizable=1;rotatable=1;deletable=1;locked=0;connectable=1;backgroundOutline=0;strokeWidth=3;" parent="1" vertex="1">
          <mxGeometry x="1799" y="375" width="115" height="50" as="geometry" />
        </mxCell>
        <mxCell id="FIExH7QmCzMLWhxPW_MM-18" style="edgeStyle=orthogonalEdgeStyle;rounded=0;orthogonalLoop=1;jettySize=auto;html=1;entryX=0.394;entryY=0.034;entryDx=0;entryDy=0;entryPerimeter=0;exitX=0.5;exitY=1;exitDx=0;exitDy=0;fontSize=24;fontStyle=1;editable=1;movable=1;resizable=1;rotatable=1;deletable=1;locked=0;connectable=1;backgroundOutline=0;strokeWidth=3;" parent="1" edge="1">
          <mxGeometry relative="1" as="geometry">
            <mxPoint x="1527" y="1215" as="sourcePoint" />
            <mxPoint x="1837.13" y="1779.6999999999998" as="targetPoint" />
            <Array as="points">
              <mxPoint x="1527" y="1498" />
              <mxPoint x="1837" y="1498" />
            </Array>
          </mxGeometry>
        </mxCell>
        <mxCell id="FIExH7QmCzMLWhxPW_MM-24" style="edgeStyle=orthogonalEdgeStyle;rounded=0;orthogonalLoop=1;jettySize=auto;html=1;entryX=0.883;entryY=-0.011;entryDx=0;entryDy=0;entryPerimeter=0;fontSize=24;fontStyle=1;editable=1;movable=1;resizable=1;rotatable=1;deletable=1;locked=0;connectable=1;backgroundOutline=0;strokeWidth=3;" parent="1" edge="1">
          <mxGeometry relative="1" as="geometry">
            <Array as="points">
              <mxPoint x="2970" y="1628" />
              <mxPoint x="1903" y="1628" />
            </Array>
            <mxPoint x="2969.5714285714284" y="1352" as="sourcePoint" />
            <mxPoint x="1902.8650000000002" y="1780.109" as="targetPoint" />
          </mxGeometry>
        </mxCell>
        <mxCell id="FIExH7QmCzMLWhxPW_MM-31" value="&lt;font&gt;Logout&lt;/font&gt;" style="edgeLabel;html=1;align=center;verticalAlign=middle;resizable=1;points=[];fontStyle=1;fontSize=24;editable=1;movable=1;rotatable=1;deletable=1;locked=0;connectable=1;backgroundOutline=0;" parent="1" vertex="1" connectable="0">
          <mxGeometry x="627" y="1538" as="geometry" />
        </mxCell>
        <mxCell id="FIExH7QmCzMLWhxPW_MM-32" value="&lt;font&gt;Logout&lt;/font&gt;" style="edgeLabel;html=1;align=center;verticalAlign=middle;resizable=1;points=[];fontStyle=1;fontSize=24;editable=1;movable=1;rotatable=1;deletable=1;locked=0;connectable=1;backgroundOutline=0;" parent="1" vertex="1" connectable="0">
          <mxGeometry x="1419" y="1523" as="geometry" />
        </mxCell>
        <mxCell id="FIExH7QmCzMLWhxPW_MM-33" value="&lt;font&gt;Logout&lt;/font&gt;" style="edgeLabel;html=1;align=center;verticalAlign=middle;resizable=1;points=[];fontStyle=1;fontSize=24;editable=1;movable=1;rotatable=1;deletable=1;locked=0;connectable=1;backgroundOutline=0;" parent="1" vertex="1" connectable="0">
          <mxGeometry x="336" y="1391" as="geometry" />
        </mxCell>
        <mxCell id="FIExH7QmCzMLWhxPW_MM-36" value="&lt;font&gt;Logout&lt;/font&gt;" style="edgeLabel;html=1;align=center;verticalAlign=middle;resizable=1;points=[];fontStyle=1;fontSize=24;editable=1;movable=1;rotatable=1;deletable=1;locked=0;connectable=1;backgroundOutline=0;" parent="1" vertex="1" connectable="0">
          <mxGeometry x="2974" y="1464" as="geometry" />
        </mxCell>
        <mxCell id="FIExH7QmCzMLWhxPW_MM-38" value="&lt;font&gt;Logout&lt;/font&gt;" style="edgeLabel;html=1;align=center;verticalAlign=middle;resizable=1;points=[];fontStyle=1;fontSize=24;editable=1;movable=1;rotatable=1;deletable=1;locked=0;connectable=1;backgroundOutline=0;" parent="1" vertex="1" connectable="0">
          <mxGeometry x="3436" y="1474" as="geometry" />
        </mxCell>
        <mxCell id="FIExH7QmCzMLWhxPW_MM-42" value="" style="swimlane;startSize=0;strokeWidth=4;fontSize=24;fontStyle=1;editable=1;movable=1;resizable=1;rotatable=1;deletable=1;locked=0;connectable=1;backgroundOutline=0;" parent="1" vertex="1">
          <mxGeometry x="211" y="-13" width="3518" height="2150" as="geometry" />
        </mxCell>
        <mxCell id="Z_lRhfTax4ggt8AZdCFU-124" value="SetNewPassword" style="rounded=1;whiteSpace=wrap;html=1;fontSize=24;fontStyle=1;editable=1;movable=1;resizable=1;rotatable=1;deletable=1;locked=0;connectable=1;backgroundOutline=0;" parent="FIExH7QmCzMLWhxPW_MM-42" vertex="1">
          <mxGeometry x="3141" y="1226" width="204" height="87" as="geometry" />
        </mxCell>
        <mxCell id="Z_lRhfTax4ggt8AZdCFU-160" value="&lt;font&gt;End&lt;/font&gt;" style="text;html=1;align=center;verticalAlign=middle;resizable=1;points=[];autosize=1;strokeColor=none;fillColor=none;fontSize=24;fontStyle=1;editable=1;movable=1;rotatable=1;deletable=1;locked=0;connectable=1;backgroundOutline=0;strokeWidth=6;" parent="FIExH7QmCzMLWhxPW_MM-42" vertex="1">
          <mxGeometry x="1610" y="2038" width="61" height="41" as="geometry" />
        </mxCell>
        <mxCell id="V_zlflSBCVvjLNrua1hl-5" value="&lt;font&gt;Select Discussion&lt;/font&gt;" style="edgeLabel;html=1;align=center;verticalAlign=middle;resizable=1;points=[];fontSize=24;fontStyle=1;editable=1;movable=1;rotatable=1;deletable=1;locked=0;connectable=1;backgroundOutline=0;" connectable="0" vertex="1" parent="FIExH7QmCzMLWhxPW_MM-42">
          <mxGeometry x="498.00098544384707" y="638.9976114598977" as="geometry" />
        </mxCell>
        <mxCell id="V_zlflSBCVvjLNrua1hl-6" value="IDLE" style="swimlane;whiteSpace=wrap;html=1;fontSize=24;fontStyle=1;editable=1;movable=1;resizable=1;rotatable=1;deletable=1;locked=0;connectable=1;backgroundOutline=0;strokeWidth=3;" vertex="1" parent="FIExH7QmCzMLWhxPW_MM-42">
          <mxGeometry x="560" y="220" width="251" height="73" as="geometry" />
        </mxCell>
        <mxCell id="FIExH7QmCzMLWhxPW_MM-29" value="&lt;font&gt;Logout&lt;/font&gt;" style="edgeLabel;html=1;align=center;verticalAlign=middle;resizable=1;points=[];fontStyle=1;fontSize=24;editable=1;movable=1;rotatable=1;deletable=1;locked=0;connectable=1;backgroundOutline=0;" parent="FIExH7QmCzMLWhxPW_MM-42" vertex="1" connectable="0">
          <mxGeometry x="1482" y="1504" as="geometry" />
        </mxCell>
        <mxCell id="Z_lRhfTax4ggt8AZdCFU-49" value="AdminDashboard" style="swimlane;whiteSpace=wrap;html=1;fontSize=24;fontStyle=1;editable=1;movable=1;resizable=1;rotatable=1;deletable=1;locked=0;connectable=1;backgroundOutline=0;strokeWidth=3;startSize=34;" parent="FIExH7QmCzMLWhxPW_MM-42" vertex="1">
          <mxGeometry x="2476" y="753" width="591" height="604" as="geometry" />
        </mxCell>
        <mxCell id="Z_lRhfTax4ggt8AZdCFU-50" value="Managing&lt;div&gt;Users&lt;/div&gt;" style="rounded=1;whiteSpace=wrap;html=1;fontSize=24;fontStyle=1;editable=1;movable=1;resizable=1;rotatable=1;deletable=1;locked=0;connectable=1;backgroundOutline=0;" parent="Z_lRhfTax4ggt8AZdCFU-49" vertex="1">
          <mxGeometry x="225" y="96" width="131" height="69" as="geometry" />
        </mxCell>
        <mxCell id="Z_lRhfTax4ggt8AZdCFU-51" value="Generating Logs" style="rounded=1;whiteSpace=wrap;html=1;fontSize=24;fontStyle=1;editable=1;movable=1;resizable=1;rotatable=1;deletable=1;locked=0;connectable=1;backgroundOutline=0;" parent="Z_lRhfTax4ggt8AZdCFU-49" vertex="1">
          <mxGeometry x="384" y="429" width="131" height="67" as="geometry" />
        </mxCell>
        <mxCell id="Z_lRhfTax4ggt8AZdCFU-52" value="" style="ellipse;html=1;shape=startState;fillColor=#000000;strokeColor=#ff0000;fontSize=24;fontStyle=1;editable=1;movable=1;resizable=1;rotatable=1;deletable=1;locked=0;connectable=1;backgroundOutline=0;" parent="Z_lRhfTax4ggt8AZdCFU-49" vertex="1">
          <mxGeometry x="267" y="35" width="30" height="30" as="geometry" />
        </mxCell>
        <mxCell id="Z_lRhfTax4ggt8AZdCFU-53" value="" style="edgeStyle=orthogonalEdgeStyle;html=1;verticalAlign=bottom;endArrow=open;endSize=8;strokeColor=#ff0000;rounded=0;fontSize=24;fontStyle=1;editable=1;movable=1;resizable=1;rotatable=1;deletable=1;locked=0;connectable=1;backgroundOutline=0;" parent="Z_lRhfTax4ggt8AZdCFU-49" edge="1">
          <mxGeometry relative="1" as="geometry">
            <mxPoint x="281" y="95" as="targetPoint" />
            <mxPoint x="281.00000000000045" y="57" as="sourcePoint" />
          </mxGeometry>
        </mxCell>
        <mxCell id="Z_lRhfTax4ggt8AZdCFU-54" value="" style="endArrow=classic;html=1;rounded=0;edgeStyle=orthogonalEdgeStyle;curved=1;entryX=0.119;entryY=1.007;entryDx=0;entryDy=0;entryPerimeter=0;fontSize=24;fontStyle=1;editable=1;movable=1;resizable=1;rotatable=1;deletable=1;locked=0;connectable=1;backgroundOutline=0;" parent="Z_lRhfTax4ggt8AZdCFU-49" target="Z_lRhfTax4ggt8AZdCFU-50" edge="1">
          <mxGeometry width="50" height="50" relative="1" as="geometry">
            <mxPoint x="223" y="151" as="sourcePoint" />
            <mxPoint x="141" y="300" as="targetPoint" />
            <Array as="points">
              <mxPoint x="131" y="151" />
              <mxPoint x="131" y="260" />
              <mxPoint x="239" y="260" />
            </Array>
          </mxGeometry>
        </mxCell>
        <mxCell id="Z_lRhfTax4ggt8AZdCFU-55" value="&lt;span&gt;Add/Edit/&lt;/span&gt;&lt;div&gt;&lt;span&gt;Delete Users&lt;/span&gt;&lt;/div&gt;" style="edgeLabel;html=1;align=center;verticalAlign=middle;resizable=1;points=[];fontSize=24;fontStyle=1;editable=1;movable=1;rotatable=1;deletable=1;locked=0;connectable=1;backgroundOutline=0;" parent="Z_lRhfTax4ggt8AZdCFU-54" connectable="0" vertex="1">
          <mxGeometry x="-0.2293" y="-3" relative="1" as="geometry">
            <mxPoint x="-40" y="65" as="offset" />
          </mxGeometry>
        </mxCell>
        <mxCell id="Z_lRhfTax4ggt8AZdCFU-56" value="Managing Quizzes&amp;nbsp;" style="rounded=1;whiteSpace=wrap;html=1;fontSize=24;fontStyle=1;editable=1;movable=1;resizable=1;rotatable=1;deletable=1;locked=0;connectable=1;backgroundOutline=0;" parent="Z_lRhfTax4ggt8AZdCFU-49" vertex="1">
          <mxGeometry x="260" y="255" width="120" height="67" as="geometry" />
        </mxCell>
        <mxCell id="Z_lRhfTax4ggt8AZdCFU-57" value="" style="endArrow=classic;html=1;rounded=0;edgeStyle=orthogonalEdgeStyle;curved=1;exitX=0.863;exitY=0.056;exitDx=0;exitDy=0;exitPerimeter=0;fontSize=24;fontStyle=1;editable=1;movable=1;resizable=1;rotatable=1;deletable=1;locked=0;connectable=1;backgroundOutline=0;" parent="Z_lRhfTax4ggt8AZdCFU-49" edge="1">
          <mxGeometry width="50" height="50" relative="1" as="geometry">
            <mxPoint x="498.0529999999999" y="429.75199999999995" as="sourcePoint" />
            <mxPoint x="357" y="116" as="targetPoint" />
            <Array as="points">
              <mxPoint x="498" y="422" />
              <mxPoint x="509" y="422" />
              <mxPoint x="509" y="116" />
            </Array>
          </mxGeometry>
        </mxCell>
        <mxCell id="Z_lRhfTax4ggt8AZdCFU-58" value="&lt;span&gt;Switch Task&lt;/span&gt;" style="edgeLabel;html=1;align=center;verticalAlign=middle;resizable=1;points=[];fontSize=24;fontStyle=1;editable=1;movable=1;rotatable=1;deletable=1;locked=0;connectable=1;backgroundOutline=0;" parent="Z_lRhfTax4ggt8AZdCFU-57" connectable="0" vertex="1">
          <mxGeometry x="-0.1182" y="3" relative="1" as="geometry">
            <mxPoint as="offset" />
          </mxGeometry>
        </mxCell>
        <mxCell id="Z_lRhfTax4ggt8AZdCFU-59" value="" style="endArrow=classic;html=1;rounded=0;exitX=0.611;exitY=0.967;exitDx=0;exitDy=0;entryX=0.453;entryY=-0.054;entryDx=0;entryDy=0;entryPerimeter=0;edgeStyle=orthogonalEdgeStyle;curved=1;fontSize=24;fontStyle=1;editable=1;movable=1;resizable=1;rotatable=1;deletable=1;locked=0;connectable=1;backgroundOutline=0;exitPerimeter=0;" parent="Z_lRhfTax4ggt8AZdCFU-49" edge="1" source="Z_lRhfTax4ggt8AZdCFU-50">
          <mxGeometry width="50" height="50" relative="1" as="geometry">
            <mxPoint x="288.365" y="157.5" as="sourcePoint" />
            <mxPoint x="312.095" y="252.29999999999995" as="targetPoint" />
            <Array as="points">
              <mxPoint x="305" y="165" />
              <mxPoint x="312" y="165" />
            </Array>
          </mxGeometry>
        </mxCell>
        <mxCell id="Z_lRhfTax4ggt8AZdCFU-60" value="&lt;span&gt;Switch Task&lt;/span&gt;" style="edgeLabel;html=1;align=center;verticalAlign=middle;resizable=1;points=[];fontSize=24;fontStyle=1;editable=1;movable=1;rotatable=1;deletable=1;locked=0;connectable=1;backgroundOutline=0;" parent="Z_lRhfTax4ggt8AZdCFU-59" connectable="0" vertex="1">
          <mxGeometry x="-0.0792" y="2" relative="1" as="geometry">
            <mxPoint x="1" y="9" as="offset" />
          </mxGeometry>
        </mxCell>
        <mxCell id="Z_lRhfTax4ggt8AZdCFU-63" value="" style="endArrow=classic;html=1;rounded=0;exitX=0.67;exitY=1.013;exitDx=0;exitDy=0;exitPerimeter=0;entryX=0.326;entryY=0.064;entryDx=0;entryDy=0;entryPerimeter=0;fontSize=24;fontStyle=1;editable=1;movable=1;resizable=1;rotatable=1;deletable=1;locked=0;connectable=1;backgroundOutline=0;" parent="Z_lRhfTax4ggt8AZdCFU-49" source="Z_lRhfTax4ggt8AZdCFU-56" target="Z_lRhfTax4ggt8AZdCFU-51" edge="1">
          <mxGeometry width="50" height="50" relative="1" as="geometry">
            <mxPoint x="112" y="341" as="sourcePoint" />
            <mxPoint x="162" y="291" as="targetPoint" />
          </mxGeometry>
        </mxCell>
        <mxCell id="Z_lRhfTax4ggt8AZdCFU-71" value="&lt;span&gt;Switch Task&lt;/span&gt;" style="edgeLabel;html=1;align=center;verticalAlign=middle;resizable=1;points=[];fontSize=24;fontStyle=1;editable=1;movable=1;rotatable=1;deletable=1;locked=0;connectable=1;backgroundOutline=0;" parent="Z_lRhfTax4ggt8AZdCFU-63" connectable="0" vertex="1">
          <mxGeometry x="-0.0657" y="1" relative="1" as="geometry">
            <mxPoint as="offset" />
          </mxGeometry>
        </mxCell>
        <mxCell id="Z_lRhfTax4ggt8AZdCFU-64" value="" style="endArrow=classic;html=1;rounded=0;edgeStyle=orthogonalEdgeStyle;curved=1;entryX=0.119;entryY=1.007;entryDx=0;entryDy=0;entryPerimeter=0;fontSize=24;fontStyle=1;editable=1;movable=1;resizable=1;rotatable=1;deletable=1;locked=0;connectable=1;backgroundOutline=0;" parent="Z_lRhfTax4ggt8AZdCFU-49" edge="1">
          <mxGeometry width="50" height="50" relative="1" as="geometry">
            <mxPoint x="261" y="310" as="sourcePoint" />
            <mxPoint x="277" y="323" as="targetPoint" />
            <Array as="points">
              <mxPoint x="169" y="310" />
              <mxPoint x="169" y="419" />
              <mxPoint x="277" y="419" />
            </Array>
          </mxGeometry>
        </mxCell>
        <mxCell id="Z_lRhfTax4ggt8AZdCFU-65" value="&lt;span&gt;Add/Edit/View Quiz&lt;/span&gt;" style="edgeLabel;html=1;align=center;verticalAlign=middle;resizable=1;points=[];fontSize=24;fontStyle=1;editable=1;movable=1;rotatable=1;deletable=1;locked=0;connectable=1;backgroundOutline=0;" parent="Z_lRhfTax4ggt8AZdCFU-64" connectable="0" vertex="1">
          <mxGeometry x="-0.2293" y="-3" relative="1" as="geometry">
            <mxPoint x="3" y="63" as="offset" />
          </mxGeometry>
        </mxCell>
        <mxCell id="Z_lRhfTax4ggt8AZdCFU-66" value="" style="endArrow=classic;html=1;rounded=0;edgeStyle=orthogonalEdgeStyle;curved=1;entryX=0.119;entryY=1.007;entryDx=0;entryDy=0;entryPerimeter=0;fontSize=24;fontStyle=1;editable=1;movable=1;resizable=1;rotatable=1;deletable=1;locked=0;connectable=1;backgroundOutline=0;" parent="Z_lRhfTax4ggt8AZdCFU-49" edge="1">
          <mxGeometry width="50" height="50" relative="1" as="geometry">
            <mxPoint x="383" y="483" as="sourcePoint" />
            <mxPoint x="399" y="496" as="targetPoint" />
            <Array as="points">
              <mxPoint x="291" y="483" />
              <mxPoint x="291" y="592" />
              <mxPoint x="399" y="592" />
            </Array>
          </mxGeometry>
        </mxCell>
        <mxCell id="Z_lRhfTax4ggt8AZdCFU-68" value="&lt;font&gt;Generate Logs&lt;/font&gt;" style="edgeLabel;html=1;align=center;verticalAlign=middle;resizable=1;points=[];fontSize=24;fontStyle=1;editable=1;movable=1;rotatable=1;deletable=1;locked=0;connectable=1;backgroundOutline=0;" parent="Z_lRhfTax4ggt8AZdCFU-66" connectable="0" vertex="1">
          <mxGeometry x="-0.2858" y="-1" relative="1" as="geometry">
            <mxPoint as="offset" />
          </mxGeometry>
        </mxCell>
        <mxCell id="7o8EhB13gYxt9ykmUNno-118" value="Participate In Discussion" style="swimlane;whiteSpace=wrap;html=1;fontSize=24;fontStyle=1;editable=1;movable=1;resizable=1;rotatable=1;deletable=1;locked=0;connectable=1;backgroundOutline=0;verticalAlign=middle;strokeWidth=3;startSize=68;" parent="FIExH7QmCzMLWhxPW_MM-42" vertex="1">
          <mxGeometry x="250" y="760" width="253" height="586" as="geometry" />
        </mxCell>
        <mxCell id="7o8EhB13gYxt9ykmUNno-116" value="Reply / React" style="rounded=1;whiteSpace=wrap;html=1;fontSize=24;fontStyle=1;editable=1;movable=1;resizable=1;rotatable=1;deletable=1;locked=0;connectable=1;backgroundOutline=0;" parent="7o8EhB13gYxt9ykmUNno-118" vertex="1">
          <mxGeometry x="74" y="461" width="115" height="50" as="geometry" />
        </mxCell>
        <mxCell id="7o8EhB13gYxt9ykmUNno-122" value="" style="ellipse;html=1;shape=startState;fillColor=#000000;strokeColor=#ff0000;fontSize=24;fontStyle=1;editable=1;movable=1;resizable=1;rotatable=1;deletable=1;locked=0;connectable=1;backgroundOutline=0;" parent="7o8EhB13gYxt9ykmUNno-118" vertex="1">
          <mxGeometry x="118" y="68" width="30" height="30" as="geometry" />
        </mxCell>
        <mxCell id="7o8EhB13gYxt9ykmUNno-123" value="" style="edgeStyle=orthogonalEdgeStyle;html=1;verticalAlign=bottom;endArrow=open;endSize=8;strokeColor=#ff0000;rounded=0;fontSize=24;fontStyle=1;editable=1;movable=1;resizable=1;rotatable=1;deletable=1;locked=0;connectable=1;backgroundOutline=0;" parent="7o8EhB13gYxt9ykmUNno-118" edge="1">
          <mxGeometry relative="1" as="geometry">
            <mxPoint x="133" y="126" as="targetPoint" />
            <mxPoint x="133" y="103.00000000000023" as="sourcePoint" />
          </mxGeometry>
        </mxCell>
        <mxCell id="Z_lRhfTax4ggt8AZdCFU-96" value="" style="edgeStyle=orthogonalEdgeStyle;rounded=0;orthogonalLoop=1;jettySize=auto;html=1;fontSize=24;fontStyle=1;editable=1;movable=1;resizable=1;rotatable=1;deletable=1;locked=0;connectable=1;backgroundOutline=0;" parent="7o8EhB13gYxt9ykmUNno-118" source="Z_lRhfTax4ggt8AZdCFU-92" target="Z_lRhfTax4ggt8AZdCFU-93" edge="1">
          <mxGeometry relative="1" as="geometry" />
        </mxCell>
        <mxCell id="Z_lRhfTax4ggt8AZdCFU-92" value="Discussion&amp;nbsp;" style="rounded=1;whiteSpace=wrap;html=1;fontSize=24;fontStyle=1;editable=1;movable=1;resizable=1;rotatable=1;deletable=1;locked=0;connectable=1;backgroundOutline=0;" parent="7o8EhB13gYxt9ykmUNno-118" vertex="1">
          <mxGeometry x="62" y="127" width="138" height="54" as="geometry" />
        </mxCell>
        <mxCell id="Z_lRhfTax4ggt8AZdCFU-97" value="" style="edgeStyle=orthogonalEdgeStyle;rounded=0;orthogonalLoop=1;jettySize=auto;html=1;fontSize=24;fontStyle=1;editable=1;movable=1;resizable=1;rotatable=1;deletable=1;locked=0;connectable=1;backgroundOutline=0;" parent="7o8EhB13gYxt9ykmUNno-118" source="Z_lRhfTax4ggt8AZdCFU-93" target="Z_lRhfTax4ggt8AZdCFU-94" edge="1">
          <mxGeometry relative="1" as="geometry" />
        </mxCell>
        <mxCell id="Z_lRhfTax4ggt8AZdCFU-93" value="Interact" style="rounded=1;whiteSpace=wrap;html=1;fontSize=24;fontStyle=1;editable=1;movable=1;resizable=1;rotatable=1;deletable=1;locked=0;connectable=1;backgroundOutline=0;" parent="7o8EhB13gYxt9ykmUNno-118" vertex="1">
          <mxGeometry x="73" y="241" width="115" height="50" as="geometry" />
        </mxCell>
        <mxCell id="Z_lRhfTax4ggt8AZdCFU-98" value="" style="edgeStyle=orthogonalEdgeStyle;rounded=0;orthogonalLoop=1;jettySize=auto;html=1;fontSize=24;fontStyle=1;editable=1;movable=1;resizable=1;rotatable=1;deletable=1;locked=0;connectable=1;backgroundOutline=0;" parent="7o8EhB13gYxt9ykmUNno-118" source="Z_lRhfTax4ggt8AZdCFU-94" target="7o8EhB13gYxt9ykmUNno-116" edge="1">
          <mxGeometry relative="1" as="geometry" />
        </mxCell>
        <mxCell id="Z_lRhfTax4ggt8AZdCFU-94" value="Post Comment" style="rounded=1;whiteSpace=wrap;html=1;fontSize=24;fontStyle=1;editable=1;movable=1;resizable=1;rotatable=1;deletable=1;locked=0;connectable=1;backgroundOutline=0;" parent="7o8EhB13gYxt9ykmUNno-118" vertex="1">
          <mxGeometry x="74" y="356" width="115" height="50" as="geometry" />
        </mxCell>
        <mxCell id="Z_lRhfTax4ggt8AZdCFU-126" value="" style="edgeStyle=orthogonalEdgeStyle;rounded=0;orthogonalLoop=1;jettySize=auto;html=1;fontSize=24;fontStyle=1;editable=1;movable=1;resizable=1;rotatable=1;deletable=1;locked=0;connectable=1;backgroundOutline=0;" parent="1" source="Z_lRhfTax4ggt8AZdCFU-121" target="Z_lRhfTax4ggt8AZdCFU-124" edge="1">
          <mxGeometry relative="1" as="geometry" />
        </mxCell>
        <mxCell id="V_zlflSBCVvjLNrua1hl-23" value="" style="edgeStyle=orthogonalEdgeStyle;rounded=0;orthogonalLoop=1;jettySize=auto;html=1;entryX=0.5;entryY=0;entryDx=0;entryDy=0;fontSize=24;fontStyle=1;editable=1;movable=1;resizable=1;rotatable=1;deletable=1;locked=0;connectable=1;backgroundOutline=0;strokeWidth=3;" edge="1" parent="1" source="Z_lRhfTax4ggt8AZdCFU-15" target="FIExH7QmCzMLWhxPW_MM-34">
          <mxGeometry relative="1" as="geometry">
            <mxPoint x="1854" y="1140" as="sourcePoint" />
            <mxPoint x="1854" y="1780" as="targetPoint" />
            <Array as="points" />
          </mxGeometry>
        </mxCell>
        <mxCell id="FIExH7QmCzMLWhxPW_MM-34" value="&lt;font&gt;Logout&lt;/font&gt;" style="edgeLabel;html=1;align=center;verticalAlign=middle;resizable=1;points=[];fontStyle=1;fontSize=24;editable=1;movable=1;rotatable=1;deletable=1;locked=0;connectable=1;backgroundOutline=0;" parent="1" vertex="1" connectable="0">
          <mxGeometry x="1858" y="1324" as="geometry" />
        </mxCell>
        <mxCell id="V_zlflSBCVvjLNrua1hl-24" value="" style="edgeStyle=orthogonalEdgeStyle;rounded=0;orthogonalLoop=1;jettySize=auto;html=1;entryX=0.75;entryY=0;entryDx=0;entryDy=0;exitX=0.5;exitY=1;exitDx=0;exitDy=0;fontSize=24;fontStyle=1;editable=1;movable=1;resizable=1;rotatable=1;deletable=1;locked=0;connectable=1;backgroundOutline=0;strokeWidth=3;" edge="1" parent="1" target="FIExH7QmCzMLWhxPW_MM-37">
          <mxGeometry relative="1" as="geometry">
            <mxPoint x="2503.5" y="1138" as="sourcePoint" />
            <mxPoint x="1884.75" y="1780" as="targetPoint" />
            <Array as="points">
              <mxPoint x="2504" y="1521" />
            </Array>
          </mxGeometry>
        </mxCell>
        <mxCell id="FIExH7QmCzMLWhxPW_MM-37" value="&lt;font&gt;Logout&lt;/font&gt;" style="edgeLabel;html=1;align=center;verticalAlign=middle;resizable=1;points=[];fontStyle=1;fontSize=24;editable=1;movable=1;rotatable=1;deletable=1;locked=0;connectable=1;backgroundOutline=0;" parent="1" vertex="1" connectable="0">
          <mxGeometry x="2506" y="1334" as="geometry" />
        </mxCell>
        <mxCell id="V_zlflSBCVvjLNrua1hl-25" value="" style="edgeStyle=orthogonalEdgeStyle;rounded=0;orthogonalLoop=1;jettySize=auto;html=1;exitX=0.5;exitY=1;exitDx=0;exitDy=0;fontSize=24;fontStyle=1;editable=1;movable=1;resizable=1;rotatable=1;deletable=1;locked=0;connectable=1;backgroundOutline=0;strokeWidth=3;" edge="1" parent="1" target="FIExH7QmCzMLWhxPW_MM-35">
          <mxGeometry relative="1" as="geometry">
            <mxPoint x="1866.571271623884" y="1780.1428920200897" as="targetPoint" />
            <mxPoint x="2196.4999999999995" y="1142.0000000000002" as="sourcePoint" />
            <Array as="points">
              <mxPoint x="2196" y="1492" />
            </Array>
          </mxGeometry>
        </mxCell>
        <mxCell id="FIExH7QmCzMLWhxPW_MM-35" value="&lt;font&gt;Logout&lt;/font&gt;" style="edgeLabel;html=1;align=center;verticalAlign=middle;resizable=1;points=[];fontStyle=1;fontSize=24;editable=1;movable=1;rotatable=1;deletable=1;locked=0;connectable=1;backgroundOutline=0;" parent="1" vertex="1" connectable="0">
          <mxGeometry x="2017" y="1488" as="geometry" />
        </mxCell>
        <mxCell id="V_zlflSBCVvjLNrua1hl-26" style="edgeStyle=orthogonalEdgeStyle;rounded=0;orthogonalLoop=1;jettySize=auto;html=1;entryX=0;entryY=0.5;entryDx=0;entryDy=0;strokeWidth=3;fontSize=24;" edge="1" parent="1" source="V_zlflSBCVvjLNrua1hl-6" target="Z_lRhfTax4ggt8AZdCFU-155">
          <mxGeometry relative="1" as="geometry">
            <Array as="points">
              <mxPoint x="259" y="244" />
              <mxPoint x="259" y="1999" />
            </Array>
          </mxGeometry>
        </mxCell>
      </root>
    </mxGraphModel>
  </diagram>
</mxfile>
